<?xml version="1.0" standalone="no"?>
<!DOCTYPE svg PUBLIC "-//W3C//DTD SVG 20010904//EN"
 "http://www.w3.org/TR/2001/REC-SVG-20010904/DTD/svg10.dtd">
<svg version="1.0" xmlns="http://www.w3.org/2000/svg"
 width="680.000000pt" height="443.000000pt" viewBox="0 0 680.000000 443.000000"
 preserveAspectRatio="xMidYMid meet">

<g transform="translate(0.000000,443.000000) scale(0.100000,-0.100000)"
fill="#000000" stroke="none">
<path d="M0 2215 l0 -2215 3400 0 3400 0 0 2215 0 2215 -3400 0 -3400 0 0
-2215z m1355 2071 c28 -13 62 -36 77 -52 36 -39 63 -103 49 -117 -6 -6 -11
-21 -11 -33 0 -27 -41 -35 -120 -23 -93 13 -145 10 -194 -11 -31 -14 -48 -29
-52 -45 -9 -36 4 -47 26 -25 25 25 100 28 100 5 0 -9 -9 -15 -24 -15 -14 0
-28 -5 -32 -12 -5 -7 -2 -9 8 -5 9 3 25 -1 37 -9 19 -14 24 -13 53 10 49 37
84 43 98 17 6 -12 8 -27 4 -33 -4 -7 -3 -8 4 -4 7 4 12 2 12 -5 0 -7 2 -10 5
-8 2 3 -1 20 -8 38 -11 31 -10 34 18 57 17 13 43 24 61 24 25 0 34 -7 53 -40
18 -33 21 -49 16 -103 -5 -58 -4 -65 12 -63 12 0 19 -7 21 -21 2 -13 -2 -23
-9 -23 -9 0 -8 -4 1 -15 15 -19 5 -49 -15 -41 -10 3 -21 -9 -34 -40 -11 -24
-28 -47 -38 -51 -10 -4 -24 -13 -31 -20 -18 -17 -62 -17 -62 1 0 7 7 19 15 26
17 14 21 60 5 60 -5 0 -10 6 -10 14 0 17 -75 32 -93 19 -7 -6 -23 -7 -37 -3
-39 10 -5 24 60 25 48 0 55 3 58 21 5 34 -44 39 -87 9 -38 -27 -52 -25 -44 5
8 29 30 43 58 36 83 -20 77 -21 63 8 -7 17 -8 30 -2 34 12 9 16 32 6 32 -19 0
-70 -31 -76 -46 -5 -12 -10 -13 -27 -4 -29 16 -91 -13 -83 -38 5 -16 5 -16 -6
1 -6 9 -15 17 -19 17 -14 0 -31 -86 -25 -119 8 -40 -7 -40 -40 0 -36 43 -59
88 -52 105 3 8 -1 14 -9 14 -11 0 -13 -8 -8 -30 5 -25 3 -29 -10 -24 -9 3 -24
-1 -32 -10 -22 -22 -27 -21 -59 13 -21 22 -27 36 -24 62 3 29 7 34 33 37 16 2
33 9 37 15 6 9 8 9 8 1 0 -7 7 -14 15 -17 12 -5 12 -1 4 21 -6 14 -15 32 -21
39 -8 10 -7 13 4 13 11 0 14 7 11 25 -3 13 0 39 6 56 8 24 8 36 0 46 -7 7 -9
28 -6 48 3 20 2 33 -2 30 -17 -10 -36 -103 -36 -177 0 -43 -4 -78 -9 -78 -5 0
-7 44 -3 100 5 100 29 177 54 173 6 -1 10 5 9 14 0 9 8 22 19 27 11 6 38 22
59 35 91 57 187 67 271 27z m3743 2 c9 -9 12 -9 12 0 0 7 9 12 20 12 14 0 20
-7 20 -24 0 -15 7 -26 20 -29 35 -9 22 -27 -20 -27 -35 0 -40 3 -40 22 0 17
-3 19 -12 10 -7 -7 -20 -12 -30 -12 -10 0 -18 -4 -18 -10 0 -5 -9 -10 -20 -10
-17 0 -20 7 -20 40 0 40 0 40 38 40 21 0 43 -5 50 -12z m176 -8 c18 -62 20
-58 -29 -58 -47 1 -52 7 -39 56 8 30 60 32 68 2z m66 -20 c0 -33 -3 -40 -20
-40 -17 0 -20 7 -20 40 0 33 3 40 20 40 17 0 20 -7 20 -40z m58 28 c9 -9 12
-9 12 0 0 7 7 12 15 12 11 0 15 -11 15 -39 l0 -39 -45 0 -45 0 0 39 c0 31 4
39 18 39 10 0 23 -5 30 -12z m237 -28 c0 -35 0 -35 -47 -38 l-48 -3 0 41 0 41
48 -3 c47 -3 47 -3 47 -38z m92 1 l10 -39 -48 0 c-31 0 -46 4 -44 12 2 6 6 23
9 39 5 22 12 27 35 27 25 0 30 -5 38 -39z m103 24 c0 -9 -9 -15 -25 -15 -14 0
-25 -4 -25 -10 0 -5 11 -10 25 -10 31 0 34 -25 3 -33 -42 -12 -77 27 -58 64
13 24 80 28 80 4z m40 3 c0 -9 3 -9 12 0 7 7 20 12 30 12 16 0 17 -3 8 -20 -8
-14 -8 -26 0 -40 9 -17 8 -20 -8 -20 -10 0 -23 5 -30 12 -9 9 -12 9 -12 0 0
-7 -7 -12 -15 -12 -11 0 -15 11 -15 40 0 29 4 40 15 40 8 0 15 -5 15 -12z
m145 -3 c0 -5 -10 -11 -22 -13 -13 -2 -23 -8 -23 -13 0 -5 11 -7 25 -3 20 5
25 3 25 -14 0 -26 -38 -36 -67 -16 -25 16 -30 43 -11 62 15 15 73 12 73 -3z
m113 -1 c8 -15 10 -15 15 0 6 16 42 21 71 10 26 -10 21 -63 -6 -73 -28 -10
-48 -4 -71 23 l-19 21 5 -22 c6 -26 -20 -32 -41 -11 -9 9 -12 9 -12 0 0 -7 -7
-12 -15 -12 -11 0 -15 11 -15 40 0 40 0 40 40 40 25 0 42 -6 48 -16z m152 -9
c0 -14 5 -25 10 -25 6 0 10 11 10 25 0 16 6 25 15 25 11 0 15 -11 15 -35 0
-28 -5 -38 -22 -44 -32 -13 -62 9 -66 48 -3 26 0 31 17 31 16 0 21 -6 21 -25z
m111 13 c0 -10 2 -10 6 0 2 6 13 12 24 12 16 0 19 -7 19 -40 0 -32 -4 -40 -18
-40 -10 0 -23 5 -30 12 -9 9 -12 9 -12 0 0 -7 -7 -12 -15 -12 -11 0 -15 11
-15 40 0 33 3 40 20 40 11 0 20 -6 21 -12z m149 -2 c6 -8 10 -25 8 -38 -2 -19
-10 -23 -45 -26 l-43 -3 0 40 c0 40 1 41 34 41 18 0 39 -7 46 -14z m102 -1
c-2 -5 -13 -9 -25 -7 -21 3 -21 2 2 -10 14 -7 26 -19 29 -25 5 -16 -39 -33
-67 -26 -30 8 -26 23 7 24 20 1 22 2 7 6 -28 7 -39 19 -31 38 4 12 16 15 43
13 21 -2 37 -7 35 -13z m-3337 -330 c-17 -9 -20 -7 -23 14 -2 16 3 30 15 39
16 12 19 10 23 -15 4 -21 1 -31 -15 -38z m103 37 c2 -12 -2 -22 -8 -22 -6 0
-10 6 -7 13 2 6 -3 18 -12 25 -14 11 -14 12 4 10 12 -2 21 -12 23 -26z m126
-5 c6 -24 6 -24 -16 -29 -18 -3 -18 -2 -18 37 0 30 25 24 34 -8z m-98 -14
c-10 -10 -19 5 -10 18 6 11 8 11 12 0 2 -7 1 -15 -2 -18z m-72 -14 c-6 -11
-24 -2 -24 11 0 5 7 7 15 4 8 -4 12 -10 9 -15z m116 7 c0 -3 -4 -8 -10 -11 -5
-3 -10 -1 -10 4 0 6 5 11 10 11 6 0 10 -2 10 -4z m-210 -57 c0 -13 -4 -18 -12
-13 -8 5 -9 2 -4 -12 4 -10 9 -25 10 -31 1 -7 14 -31 28 -53 15 -22 23 -40 18
-40 -4 0 -13 -21 -19 -47 l-10 -48 5 43 c7 64 -11 121 -43 133 -22 8 -23 11
-12 26 12 15 12 16 -3 11 -10 -4 -19 -1 -22 8 -13 34 -6 44 29 44 29 0 35 -4
35 -21z m57 -9 c13 -16 33 -30 44 -30 24 0 24 -9 2 -26 -17 -13 -17 -14 0 -8
18 7 24 -11 7 -21 -8 -5 -7 -11 1 -21 9 -11 7 -14 -9 -14 -12 0 -23 9 -27 21
-5 14 -10 17 -18 10 -9 -7 -13 1 -14 26 -1 20 -7 41 -12 46 -11 11 -15 47 -5
47 3 0 17 -13 31 -30z m80 15 c-7 -17 8 -29 24 -19 8 5 8 9 -1 14 -9 5 -9 9
-1 14 6 4 14 0 18 -9 8 -21 -15 -37 -42 -29 -28 9 -29 12 -15 29 16 19 24 19
17 0z m173 -5 c0 -11 -4 -20 -10 -20 -5 0 -14 9 -20 20 -9 17 -8 20 10 20 13
0 20 -7 20 -20z m2056 -10 c67 -32 84 -51 76 -82 -3 -14 -1 -17 14 -11 11 4
24 13 30 22 6 8 18 12 28 8 25 -10 20 -68 -11 -113 -17 -26 -28 -57 -31 -91
-3 -36 -8 -50 -17 -47 -7 3 -13 -1 -12 -8 2 -28 -16 -108 -25 -108 -5 0 -6 -4
-3 -10 3 -5 16 -10 28 -10 16 0 23 6 24 22 1 11 8 25 15 29 19 12 76 11 84 -2
4 -7 -1 -9 -12 -7 -18 4 -74 -17 -74 -27 0 -3 18 -2 40 1 46 7 90 -1 90 -18 0
-6 -10 -22 -22 -35 -20 -21 -20 -24 -5 -40 8 -10 17 -29 20 -43 2 -14 2 1 0
32 -4 47 -2 59 11 64 12 4 15 13 10 28 -6 18 -5 19 10 7 9 -7 16 -19 16 -26 0
-7 6 -15 13 -18 30 -12 101 -207 78 -215 -9 -3 -8 -7 2 -16 8 -6 33 -67 57
-136 37 -109 41 -132 36 -181 -4 -44 -2 -60 10 -69 8 -7 17 -10 21 -7 8 9 32
-24 33 -44 0 -21 -27 -44 -72 -60 -37 -12 -37 -13 -31 -56 4 -32 2 -44 -8 -48
-12 -4 -14 -31 -11 -140 4 -136 -2 -210 -17 -200 -5 2 -11 -6 -13 -20 -5 -26
6 -35 15 -12 3 6 4 -1 1 -18 -23 -160 -34 -293 -35 -420 -2 -131 -3 -141 -10
-80 -4 39 -12 84 -17 100 -5 17 -8 40 -6 52 4 22 -27 44 -34 24 -2 -6 -9 -8
-14 -5 -7 4 -8 2 -4 -5 4 -6 11 -9 16 -6 15 9 23 -41 16 -90 -7 -44 -18 -56
-32 -34 -3 6 -1 16 5 22 6 6 11 25 11 41 -1 27 -2 29 -12 12 -6 -10 -13 -41
-15 -69 -4 -38 -2 -48 8 -42 9 6 10 3 4 -11 -5 -10 -10 -58 -13 -105 l-4 -87
26 5 c21 4 26 2 26 -16 0 -12 6 -21 15 -21 11 0 13 8 10 33 -4 22 1 15 15 -23
18 -47 21 -82 23 -235 l2 -180 -38 -78 c-20 -42 -37 -84 -37 -93 0 -14 -27
-74 -34 -74 -2 0 -3 69 -2 153 1 151 1 152 27 178 26 25 26 60 0 45 -7 -5 -11
2 -11 16 -1 19 -3 17 -16 -11 -8 -19 -13 -40 -11 -45 2 -6 -1 -49 -8 -96 -7
-47 -13 -75 -14 -63 -1 28 -48 213 -55 221 -3 2 -12 -1 -20 -7 -9 -8 -16 -8
-20 -2 -4 5 -32 21 -62 35 -41 19 -55 30 -50 41 3 9 -1 18 -9 21 -9 4 -15 19
-14 38 0 26 2 28 9 11 8 -18 9 -18 9 -2 1 28 -20 107 -29 107 -4 0 -12 -18
-18 -40 -5 -23 -6 -40 -1 -40 5 0 9 6 9 14 0 8 5 18 10 21 7 4 8 -8 4 -37 -8
-51 -11 -55 -26 -40 -19 19 -28 14 -28 -14 0 -14 -4 -22 -10 -19 -11 7 -1 67
12 76 5 3 2 21 -6 41 -9 19 -18 65 -22 102 l-7 66 27 0 c14 0 26 -6 27 -12 0
-7 4 -4 8 7 12 28 5 35 -28 29 -26 -6 -29 -3 -34 33 -12 67 -9 83 14 83 33 0
59 19 58 43 -1 18 -2 18 -6 4 -4 -16 -40 -37 -64 -37 -5 0 -9 23 -9 51 l0 51
19 -23 c11 -13 22 -21 26 -17 4 4 -5 19 -19 35 -28 30 -34 70 -13 79 8 3 13
23 14 54 l1 49 -28 -27 c-22 -21 -26 -32 -19 -49 6 -17 5 -23 -6 -23 -18 0
-19 -5 -3 -33 7 -14 14 -107 19 -242 4 -121 11 -263 15 -315 7 -100 -2 -112
-26 -35 -7 22 -23 61 -36 87 -13 26 -24 56 -24 68 0 11 -6 20 -12 20 -9 0 -8
4 2 10 13 9 13 10 0 10 -12 0 -12 2 -2 9 10 6 11 13 4 27 -6 11 -16 39 -22 64
-7 25 -19 54 -27 65 -14 18 -15 13 -9 -55 6 -68 5 -73 -9 -55 -19 25 -12 4 20
-59 14 -27 25 -57 25 -67 0 -9 7 -30 15 -45 14 -27 14 -29 -5 -32 -11 -2 -20
-8 -20 -13 0 -5 3 -8 8 -7 14 3 42 -14 42 -26 0 -7 13 -37 30 -67 23 -42 28
-62 24 -89 -11 -62 -74 -87 -74 -30 0 17 -5 30 -11 30 -7 0 -9 -11 -5 -30 9
-48 -28 -31 -58 25 -13 26 -15 27 -16 9 0 -24 -25 -39 -36 -23 -3 6 -2 79 2
162 5 84 10 137 12 120 2 -18 7 -33 12 -33 6 0 7 26 3 63 -8 67 -9 86 -5 217
2 59 5 80 12 70 8 -12 10 -10 10 11 0 14 -7 34 -15 45 -9 12 -14 42 -15 81 0
51 -3 61 -15 57 -10 -4 -15 0 -15 11 0 9 -8 19 -18 22 -17 4 -19 18 -19 156 0
84 -8 231 -18 327 -22 220 -17 407 16 570 23 112 24 114 31 71 4 -24 5 -48 2
-52 -3 -5 3 -9 12 -9 10 0 14 3 11 7 -4 3 -2 12 4 19 7 9 7 19 0 33 -18 33
-14 61 10 61 11 0 17 5 14 10 -4 6 -11 8 -16 5 -5 -4 -9 -2 -9 3 0 6 18 12 40
14 41 4 53 -5 23 -16 -15 -6 -15 -9 -3 -16 11 -7 12 -13 2 -35 -18 -40 -15
-47 16 -40 24 5 31 1 43 -22 l14 -28 3 42 c2 23 -2 51 -7 62 -6 11 -8 27 -5
35 7 19 -7 21 -24 4 -9 -9 -12 -9 -12 0 0 7 4 12 9 12 5 0 14 14 20 32 9 24 8
34 -1 40 -25 15 -54 8 -91 -23 l-37 -31 11 29 c17 48 87 158 120 188 25 25 31
27 39 15 5 -8 10 -11 10 -6 0 6 5 5 12 -2 8 -8 8 -15 -2 -27 -13 -16 0 -21 16
-5 5 5 29 20 54 33 33 17 44 29 44 47 0 13 -5 25 -13 28 -8 3 -12 -3 -11 -14
1 -11 2 -26 1 -34 -3 -32 -21 14 -21 55 -1 22 -7 57 -14 78 -13 36 -13 37 8
37 13 0 33 11 46 25 27 29 11 34 -36 11 -16 -8 -46 -18 -66 -21 -32 -6 -39 -4
-44 11 -3 11 -9 27 -14 36 -7 13 -3 19 18 27 l27 11 -27 -5 c-24 -5 -27 -2
-30 27 -3 32 -1 33 42 43 34 8 45 15 45 30 0 12 9 21 25 26 l25 6 -28 12 c-35
14 -50 6 -41 -21 3 -11 2 -18 -3 -15 -5 3 -15 2 -22 -3 -19 -11 -53 22 -45 43
3 9 23 21 44 27 21 6 43 16 49 24 9 11 6 15 -19 18 -16 2 -34 0 -40 -6 -7 -7
-10 -6 -10 2 0 6 8 16 18 21 31 18 83 12 148 -19z m-2106 5 c0 -26 -54 -125
-68 -125 -9 0 -11 7 -7 20 6 19 -2 25 -32 21 -7 -1 -13 3 -13 9 0 5 11 10 25
10 18 0 23 4 19 15 -4 10 0 15 15 15 13 0 26 10 33 25 12 28 28 33 28 10z m33
-51 c-8 -22 -32 -17 -26 5 3 11 11 17 18 14 8 -2 11 -11 8 -19z m-136 10 c-3
-3 -12 -4 -19 -1 -8 3 -5 6 6 6 11 1 17 -2 13 -5z m8 -64 c3 -5 4 -10 1 -10
-2 0 -12 -3 -20 -6 -12 -5 -15 -2 -10 10 7 18 20 21 29 6z m75 -30 c-6 -11
-18 -20 -28 -20 -13 0 -12 4 8 20 31 25 33 25 20 0z m-2292 -56 c-10 -22 -9
-28 16 -51 34 -31 28 -39 -18 -22 -41 15 -43 22 -16 67 24 38 34 42 18 6z
m2148 -8 c7 -18 -35 -96 -51 -96 -24 0 -24 31 1 118 4 15 42 -1 50 -22z m126
4 c-2 -16 0 -30 5 -30 11 0 4 -68 -7 -75 -12 -7 -50 62 -50 90 0 16 8 26 28
33 15 6 27 11 28 11 0 1 -1 -12 -4 -29z m-2451 -22 c8 -15 8 -18 0 -14 -6 4
-16 16 -22 28 -8 15 -8 18 0 14 6 -4 16 -16 22 -28z m346 -22 c-2 -6 -9 -11
-15 -10 -7 1 -32 2 -57 3 -67 2 -54 17 15 17 38 0 59 -4 57 -10z m2043 -66
c13 -20 3 -30 -31 -30 -32 0 -34 3 -19 30 11 21 37 21 50 0z m-2063 -16 c-3
-3 -12 -4 -19 -1 -8 3 -5 6 6 6 11 1 17 -2 13 -5z m-23 -39 c-6 -16 -44 -21
-44 -7 0 14 12 22 31 22 12 0 16 -5 13 -15z m37 -135 c-5 -111 -8 -125 -25
-128 -10 -2 -23 1 -28 6 -18 18 -10 135 12 188 18 40 40 70 46 61 1 -1 -1 -58
-5 -127z m-242 48 c13 -56 14 -118 1 -138 -15 -24 53 -47 163 -53 91 -6 102
-9 138 -38 22 -17 38 -36 36 -43 -5 -17 -147 -19 -209 -3 -51 13 -53 15 -52
45 2 38 -20 43 -53 13 -20 -19 -21 -19 -69 3 -27 13 -64 36 -82 51 -29 24 -31
30 -18 37 9 5 20 7 25 3 11 -6 27 40 37 103 4 29 15 49 32 63 30 23 36 19 51
-43z m2246 -228 c11 -4 33 -3 50 2 29 9 105 18 105 13 0 -2 -15 -12 -32 -24
-18 -11 -27 -21 -20 -21 6 0 12 -7 12 -15 0 -32 54 -6 63 30 3 15 5 13 6 -7 1
-19 -4 -28 -14 -28 -10 0 -15 -10 -15 -30 0 -16 3 -30 6 -30 11 0 34 29 34 44
0 9 6 16 14 16 8 0 21 8 28 18 7 10 20 21 28 24 13 5 16 -3 16 -37 1 -25 10
-59 23 -80 25 -43 26 -46 6 -39 -8 4 -15 12 -15 20 0 8 -4 14 -10 14 -5 0 -10
11 -10 25 0 27 -18 33 -39 13 -10 -11 -11 -10 -6 5 10 25 0 21 -45 -19 l-40
-36 0 31 c0 38 -37 59 -56 33 -9 -13 -12 -13 -18 3 -6 17 -8 17 -28 -1 -12
-11 -18 -13 -13 -5 6 11 2 13 -18 9 -22 -4 -30 0 -41 23 -14 29 -14 29 12 23
20 -5 24 -4 17 5 -6 6 -26 13 -45 17 -26 4 -31 3 -20 -5 12 -9 11 -11 -8 -11
-13 0 -20 4 -17 10 10 16 -8 11 -32 -8 -16 -12 -20 -21 -13 -32 8 -13 13 -13
31 -2 17 11 23 11 29 2 4 -7 13 -9 20 -5 9 5 8 1 -1 -16 -11 -20 -14 -21 -17
-6 -3 17 -23 23 -36 10 -3 -4 -15 -7 -26 -8 -16 -1 -19 3 -14 19 6 18 5 19
-10 7 -9 -7 -16 -20 -16 -28 0 -7 -9 -23 -20 -35 -11 -12 -20 -18 -20 -13 0 5
-7 -1 -16 -13 -8 -12 -22 -22 -30 -22 -8 0 -14 -5 -14 -12 0 -6 -2 -9 -5 -6
-3 3 2 21 10 41 8 20 15 54 15 76 0 22 4 42 9 45 10 6 8 -80 -2 -90 -4 -4 -7
-13 -7 -20 0 -6 13 0 29 15 16 14 26 28 22 31 -3 3 -7 16 -8 30 -1 14 0 19 3
13 3 -7 12 -13 21 -13 10 0 12 6 7 22 -6 20 -5 21 8 10 12 -10 20 -9 39 7 39
30 73 33 134 11z m1935 -99 c0 -6 -4 -13 -10 -16 -5 -3 -10 1 -10 9 0 9 5 16
10 16 6 0 10 -4 10 -9z m-3920 -106 c0 -3 -15 -19 -32 -36 -32 -31 -32 -32 -8
-26 14 4 32 7 40 8 8 0 4 4 -9 8 l-24 7 27 17 c26 18 29 18 92 -3 35 -12 72
-29 81 -38 9 -10 18 -16 20 -14 2 1 19 -5 39 -14 35 -17 72 -59 61 -71 -3 -3
0 -12 8 -20 8 -8 15 -29 15 -46 0 -24 -3 -28 -10 -17 -5 8 -10 25 -10 38 0 12
-4 22 -10 22 -10 0 -12 -7 -14 -74 -1 -54 -46 -86 -118 -86 l-50 0 3 33 c1 17
-1 42 -5 55 -10 31 -59 30 -92 -3 -30 -30 -38 -32 -24 -6 9 18 8 19 -18 6 -15
-8 -36 -13 -47 -11 -24 3 -48 -16 -32 -26 6 -4 18 -3 27 2 19 10 49 -4 31 -14
-6 -4 -15 -4 -21 -1 -5 3 -10 1 -10 -4 0 -6 -3 -11 -7 -10 -14 2 -53 -13 -53
-20 0 -4 16 -7 35 -8 19 -1 35 3 35 8 0 5 3 9 8 9 4 0 8 -14 9 -30 1 -17 -2
-30 -7 -30 -5 0 -7 -6 -5 -12 6 -16 -13 -41 -42 -56 -38 -21 -82 -14 -141 23
-57 34 -82 43 -134 44 -27 1 -28 3 -28 59 0 31 6 68 13 82 15 30 11 64 -8 56
-8 -2 -19 2 -25 10 -11 12 -6 14 28 14 24 0 47 -7 56 -16 18 -18 21 -28 5 -19
-5 4 -3 -9 5 -29 l15 -35 -30 6 c-18 3 -29 1 -29 -6 0 -6 11 -11 25 -11 14 0
25 -4 25 -10 0 -5 -5 -10 -11 -10 -5 0 -7 -5 -3 -11 4 -7 21 -9 42 -5 32 5 39
1 77 -39 24 -24 40 -47 36 -51 -6 -6 3 -4 55 11 12 3 24 14 27 25 4 16 2 18
-13 10 -9 -5 -20 -6 -24 -3 -3 3 -6 1 -6 -5 0 -22 -27 -12 -39 15 -10 22 -14
24 -22 12 -5 -7 -9 -11 -9 -6 0 17 -4 23 -21 35 -11 7 -19 23 -19 35 0 12 -11
30 -26 42 -22 18 -24 25 -18 63 6 39 9 43 33 40 16 -2 30 -13 39 -30 11 -24
16 -26 44 -18 17 5 38 16 48 25 9 8 22 15 28 15 8 0 9 7 2 26 -6 14 -8 29 -5
34 3 4 -26 15 -63 24 -52 13 -74 15 -96 6 -16 -6 -31 -9 -33 -6 -8 7 110 48
162 56 59 9 155 12 155 5z m-341 -64 c7 -1 11 -7 7 -16 -6 -16 9 -21 18 -6 7
11 46 2 46 -11 0 -5 -4 -7 -9 -3 -5 3 -12 1 -15 -4 -7 -11 -76 8 -76 21 0 5
-5 6 -10 3 -6 -4 -8 -11 -5 -16 9 -14 -58 -10 -78 5 -17 13 -8 33 11 23 4 -3
16 -1 27 3 11 4 31 6 45 4 14 -1 31 -3 39 -3z m-149 -6 c0 -2 -10 -9 -22 -15
-22 -11 -22 -10 -4 4 21 17 26 19 26 11z m8 -42 c-10 -2 -26 -2 -35 0 -10 3
-2 5 17 5 19 0 27 -2 18 -5z m122 -22 c16 -30 13 -32 -35 -30 -40 2 -45 5 -45
26 0 20 5 23 35 23 24 0 37 -6 45 -19z m38 -5 c3 -12 -1 -17 -10 -14 -7 3 -15
13 -16 22 -3 12 1 17 10 14 7 -3 15 -13 16 -22z m-98 -96 c0 -6 -9 -2 -20 7
-11 10 -20 19 -20 21 0 1 9 -2 20 -8 11 -6 20 -15 20 -20z m500 -30 c0 -5 -2
-10 -4 -10 -3 0 -8 5 -11 10 -3 6 -1 10 4 10 6 0 11 -4 11 -10z m1389 -207 c6
-120 13 -241 14 -270 1 -28 5 -49 10 -46 4 2 7 10 7 18 0 27 23 65 39 65 35
-1 49 -25 54 -93 6 -68 -3 -84 -23 -46 -9 15 -8 24 1 35 10 13 10 17 -1 24 -8
5 -11 12 -7 16 4 4 2 13 -4 21 -18 20 -40 -3 -34 -36 5 -22 4 -23 -4 -6 -5 11
-10 14 -10 8 -1 -18 20 -105 29 -124 16 -31 23 -89 11 -89 -6 0 -11 9 -11 19
0 11 -5 23 -12 27 -8 5 -9 2 -5 -10 4 -10 3 -15 -3 -11 -6 3 -10 1 -10 -6 0
-7 -3 -10 -6 -7 -3 4 -1 15 5 26 6 12 8 35 4 54 l-7 33 -6 -30 c-6 -28 -7 -27
-14 17 -7 42 -10 46 -27 35 -10 -6 -22 -8 -26 -4 -4 5 -1 12 6 17 11 6 12 20
6 56 -7 45 -9 183 -6 432 2 163 18 98 30 -125z m-1421 162 c-3 -3 -9 2 -12 12
-6 14 -5 15 5 6 7 -7 10 -15 7 -18z m2537 -235 c-2 -30 -5 -59 -5 -65 -1 -5
-6 4 -11 20 -12 37 -21 284 -12 299 11 16 33 -189 28 -254z m-2502 218 c-5
-30 -32 -73 -39 -65 -2 2 5 21 16 42 11 21 17 42 14 46 -3 5 -1 9 5 9 6 0 8
-13 4 -32z m2385 -108 c0 -8 -6 1 -13 20 -7 19 -13 42 -13 50 0 8 6 -1 13 -20
7 -19 13 -42 13 -50z m-2110 -56 c6 -31 9 -60 6 -65 -7 -12 -33 1 -30 14 1 7
1 9 -1 5 -3 -5 -13 -8 -24 -8 -28 0 -23 29 6 40 30 11 33 20 5 13 -11 -3 -20
0 -20 6 0 6 6 11 14 11 8 0 16 6 19 14 4 11 -4 9 -29 -6 -19 -11 -37 -18 -39
-16 -4 4 61 45 75 47 3 1 11 -24 18 -55z m-327 14 c-5 -13 -13 -23 -20 -22
-47 4 -45 3 -26 24 10 11 26 20 36 20 15 0 17 -4 10 -22z m63 -29 c-3 -5 -9
-9 -15 -9 -11 0 -12 43 -2 54 9 9 25 -33 17 -45z m31 31 c-3 -5 -2 -10 4 -10
5 0 11 6 14 13 2 6 7 9 11 6 4 -3 -2 -17 -13 -30 -21 -26 -25 -25 -35 9 -6 16
-3 22 9 22 9 0 13 -4 10 -10z m75 -29 c0 -14 -6 -17 -25 -13 -20 3 -23 7 -14
18 16 20 39 17 39 -5z m34 -5 c-3 -9 -10 -16 -15 -16 -6 0 -5 9 1 21 13 24 24
20 14 -5z m2253 2 c-3 -8 -6 -5 -6 6 -1 11 2 17 5 13 3 -3 4 -12 1 -19z
m-2199 0 c-3 -7 -14 -14 -26 -16 -16 -3 -20 1 -16 12 7 19 48 22 42 4z m2222
-165 c-11 -14 -20 -33 -21 -42 0 -11 -2 -12 -6 -3 -3 7 3 24 12 39 13 19 16
38 11 77 l-5 51 15 -48 c14 -45 14 -49 -6 -74z m85 -128 c-5 -53 -15 -85 -26
-85 -5 0 -9 -7 -9 -15 0 -24 -31 -66 -43 -58 -6 3 -7 1 -3 -5 3 -6 -2 -16 -13
-21 -29 -16 -37 16 -11 44 24 25 26 37 5 29 -8 -4 -15 -1 -15 5 0 7 6 14 14
17 19 7 39 57 33 81 -4 14 -5 13 -6 -5 -1 -17 -6 -22 -18 -20 -13 3 -17 12
-15 33 2 17 7 31 12 33 5 2 7 17 3 33 -4 19 -1 29 7 29 7 0 10 -6 7 -13 -3 -7
4 -19 15 -26 19 -12 20 -11 15 8 -3 12 -1 21 4 21 5 0 9 9 9 19 0 11 6 21 13
24 15 5 29 -71 22 -128z m-3415 -90 c7 -8 28 -17 47 -21 22 -4 32 -11 29 -19
-2 -7 -8 -60 -12 -119 -4 -58 -10 -103 -14 -101 -14 9 -40 -44 -40 -80 0 -31
3 -35 25 -35 21 0 25 5 25 30 0 17 5 30 10 30 6 0 11 21 11 48 l2 47 7 -55
c13 -93 12 -120 -5 -114 -9 4 -15 0 -15 -10 0 -9 5 -15 12 -14 6 2 14 -5 16
-14 2 -12 -1 -16 -11 -12 -12 4 -12 -6 0 -77 8 -45 19 -92 25 -103 16 -29 71
-99 85 -109 16 -10 33 -72 33 -122 0 -25 9 -55 25 -80 34 -56 31 -62 -9 -18
-28 33 -34 47 -39 106 -5 57 -11 71 -34 92 -57 51 -105 39 -142 -34 -11 -21
-27 -41 -36 -44 -8 -4 -15 -18 -15 -32 0 -32 -13 -32 -38 1 l-19 27 -7 -34
c-5 -25 -9 -30 -15 -20 -6 8 -18 12 -31 8 -29 -8 -50 1 -43 19 3 8 9 12 13 9
7 -4 36 64 32 72 -1 2 10 33 24 70 29 77 61 126 76 117 7 -5 9 10 4 47 -3 30
-9 168 -13 307 -5 222 -4 252 9 252 9 0 21 -7 28 -15z m97 -152 c-2 -21 -4 -4
-4 37 0 41 2 58 4 38 2 -21 2 -55 0 -75z m2537 22 c-9 -14 -14 -28 -11 -31 3
-4 34 3 68 15 69 23 92 21 34 -3 -32 -14 -35 -18 -25 -31 14 -17 0 -21 -17 -4
-7 7 -19 9 -29 5 -15 -6 -15 -9 5 -30 l22 -24 -25 -6 c-14 -3 -26 -11 -26 -17
0 -6 5 -7 10 -4 6 3 10 2 10 -3 0 -17 -13 -22 -28 -9 -13 10 -14 9 -3 -10 13
-25 27 -30 33 -12 2 7 12 -1 23 -17 18 -29 18 -29 -2 -11 -20 18 -33 14 -33
-10 0 -8 4 -12 9 -8 5 3 11 -7 13 -22 2 -16 8 -27 16 -25 6 1 12 -3 12 -8 0
-17 -30 -11 -37 8 -10 27 -26 32 -39 14 -7 -9 -16 -14 -20 -10 -4 5 1 17 10
27 14 15 15 24 6 40 -6 12 -8 21 -4 21 3 0 1 7 -6 15 -20 24 -28 8 -25 -52 1
-32 0 -50 -2 -40 -6 23 -23 22 -23 -3 0 -11 -3 -20 -8 -20 -4 0 -6 18 -4 40 2
22 9 40 16 40 6 0 4 5 -4 10 -10 6 -11 10 -2 10 15 0 16 36 0 46 -6 4 -19 -2
-29 -14 -9 -12 -22 -22 -28 -22 -7 0 -11 -19 -10 -47 1 -48 1 -48 11 -15 6 17
15 32 20 32 5 0 6 -5 3 -10 -4 -6 -1 -18 7 -27 11 -15 11 -16 -4 -10 -24 9
-34 -33 -20 -81 7 -23 8 -51 2 -72 l-8 -35 -1 45 c-2 71 -13 124 -22 108 -5
-7 -6 10 -2 40 5 48 4 52 -12 46 -10 -4 2 11 26 34 25 23 45 50 45 61 0 22
-28 37 -46 26 -17 -11 -11 7 8 21 16 12 16 13 0 14 -9 0 -20 5 -24 11 -4 7 0
9 14 5 12 -4 31 -2 42 4 12 6 39 12 61 12 21 0 42 4 45 9 3 5 10 9 15 9 5 0 2
-11 -7 -25z m466 -35 c7 0 9 8 5 20 -5 16 -2 20 14 20 12 0 21 -3 21 -7 0 -5
16 -8 36 -8 30 0 37 -4 40 -22 2 -13 -1 -23 -6 -23 -18 0 -11 -20 8 -21 16 -1
16 -2 0 -6 -22 -5 -22 -13 -3 -39 8 -10 14 -23 14 -29 1 -5 -8 1 -18 14 -25
33 -49 19 -26 -15 9 -14 15 -30 14 -37 -3 -27 1 -42 9 -30 16 25 36 -4 34 -49
-3 -111 -2 -106 -14 -80 -8 16 -8 29 0 46 6 13 8 35 4 47 l-6 24 -6 -25 c-3
-14 -14 -26 -23 -28 -14 -3 -16 2 -10 29 5 28 4 31 -11 26 -14 -5 -16 -3 -11
12 7 24 -4 71 -17 71 -6 0 -8 -16 -6 -35 2 -19 1 -35 -3 -35 -4 0 -15 -3 -25
-7 -15 -6 -16 -1 -11 36 l5 43 -27 -26 c-34 -33 -52 -34 -22 -2 l23 24 -21 12
c-12 6 -31 8 -41 5 -15 -5 -18 -3 -14 9 3 9 11 16 18 16 6 0 4 5 -4 10 -12 8
-10 10 11 10 24 0 49 16 49 32 0 12 -38 10 -45 -2 -3 -5 -11 -10 -17 -10 -7 0
-6 5 2 14 9 12 4 19 -29 36 -23 11 -41 22 -41 25 0 2 31 -7 70 -21 38 -13 75
-24 80 -24z m-1819 -41 c4 -35 7 -119 8 -186 1 -106 5 -136 31 -220 71 -232
78 -264 55 -283 -12 -10 -18 -5 -36 36 -20 48 -36 67 -50 59 -6 -4 -12 92 -23
380 -2 66 -7 158 -12 204 -6 70 -5 83 7 79 9 -3 16 -27 20 -69z m1229 -8 c0
-5 -9 -7 -20 -4 -11 3 -20 7 -20 9 0 2 9 4 20 4 11 0 20 -4 20 -9z m196 -28
c-3 -4 -17 -8 -29 -10 -17 -2 -19 -1 -7 7 17 11 47 14 36 3z m-259 -140 c-3
-10 -5 -2 -5 17 0 19 2 27 5 18 2 -10 2 -26 0 -35z m566 -21 c-16 -16 -16 -15
-10 8 4 14 7 32 7 40 1 8 5 5 11 -8 7 -18 5 -28 -8 -40z m-233 6 c0 -23 -3
-38 -6 -35 -12 12 -44 -14 -44 -35 0 -17 -3 -19 -12 -10 -9 9 -9 18 1 38 6 15
15 24 18 20 8 -8 32 25 33 47 0 37 10 15 10 -25z m176 -25 c-3 -6 -1 -13 4
-15 5 -2 12 -30 14 -63 l5 -60 -10 54 c-8 36 -14 50 -19 40 -14 -21 -16 -9
-12 56 4 53 6 57 13 30 5 -16 7 -35 5 -42z m197 31 c3 -18 2 -46 -3 -61 -4
-15 -9 -23 -9 -16 -1 7 -8 10 -17 6 -15 -5 -14 -3 1 21 14 22 16 31 6 49 -11
21 -11 21 -6 -5 4 -22 2 -26 -10 -22 -13 5 -15 -1 -14 -32 0 -22 -4 -55 -10
-74 l-11 -35 4 43 c3 31 1 42 -10 42 -8 0 -14 5 -14 11 0 6 7 9 15 5 11 -4 15
1 15 19 0 13 -4 27 -10 30 -5 3 -10 0 -10 -8 0 -8 -6 -17 -13 -20 -9 -3 -12
-16 -10 -34 3 -20 -1 -34 -13 -44 -10 -8 -15 -9 -11 -2 4 6 3 14 -3 18 -5 3
-10 15 -10 26 0 11 5 17 10 14 6 -4 8 -10 5 -15 -3 -5 -1 -11 5 -15 6 -4 9 11
7 42 l-2 48 37 0 c20 0 36 2 36 5 -1 3 2 12 6 21 12 27 34 17 39 -17z m-163
17 c0 -6 -4 -13 -10 -16 -5 -3 -10 1 -10 9 0 9 5 16 10 16 6 0 10 -4 10 -9z
m100 -1 c0 -5 -7 -10 -15 -10 -8 0 -15 5 -15 10 0 6 7 10 15 10 8 0 15 -4 15
-10z m-443 -46 c1 -16 -1 -21 -3 -11 -11 37 -26 16 -21 -30 2 -27 2 -38 0 -25
-3 13 -9 20 -15 16 -7 -5 -9 0 -6 14 3 12 1 23 -5 25 -6 2 -8 11 -4 21 4 9 11
14 17 11 5 -3 10 -1 10 5 0 26 25 1 27 -26z m-230 -6 c-3 -7 -5 -2 -5 12 0 14
2 19 5 13 2 -7 2 -19 0 -25z m100 10 c-3 -8 -6 -5 -6 6 -1 11 2 17 5 13 3 -3
4 -12 1 -19z m47 5 c-5 -5 -12 -12 -16 -18 -4 -6 -8 -2 -8 8 0 9 7 17 17 17 9
0 12 -3 7 -7z m644 -83 l0 -35 -8 30 c-4 17 -8 23 -9 15 -1 -11 -4 -10 -13 4
-8 15 -8 21 0 24 7 2 12 11 13 20 1 34 18 -22 17 -58z m-751 23 c-3 -10 -5 -4
-5 12 0 17 2 24 5 18 2 -7 2 -21 0 -30z m800 0 c-3 -10 -5 -4 -5 12 0 17 2 24
5 18 2 -7 2 -21 0 -30z m-467 12 c0 -8 -4 -15 -10 -15 -5 0 -10 7 -10 15 0 8
5 15 10 15 6 0 10 -7 10 -15z m-210 -4 c0 -13 -20 -36 -20 -24 0 8 -7 10 -17
6 -15 -6 -16 -4 -6 8 12 15 43 22 43 10z m108 -32 c-8 -5 -15 -3 -19 8 -5 15
-7 15 -17 -2 -6 -11 -11 -15 -12 -10 0 20 18 38 34 32 9 -4 17 -1 17 6 1 7 3
4 6 -7 3 -10 -1 -22 -9 -27z m59 9 c-3 -8 -6 -5 -6 6 -1 11 2 17 5 13 3 -3 4
-12 1 -19z m-317 -4 c0 -8 -4 -12 -10 -9 -5 3 -10 10 -10 16 0 5 5 9 10 9 6 0
10 -7 10 -16z m703 -14 c-3 -11 -7 -20 -9 -20 -2 0 -4 9 -4 20 0 11 4 20 9 20
5 0 7 -9 4 -20z m-679 -5 c-4 -8 -8 -15 -10 -15 -2 0 -4 7 -4 15 0 8 4 15 10
15 5 0 7 -7 4 -15z m269 -5 c-3 -11 -7 -20 -9 -20 -2 0 -4 9 -4 20 0 11 4 20
9 20 5 0 7 -9 4 -20z m434 -22 c-3 -8 -6 -5 -6 6 -1 11 2 17 5 13 3 -3 4 -12
1 -19z m-594 -10 c12 3 25 10 29 16 5 8 8 7 8 -1 0 -7 7 -13 16 -13 10 0 14
-5 10 -16 -3 -8 -2 -12 4 -9 6 3 10 -1 10 -10 0 -10 -5 -14 -12 -10 -7 4 -5 0
5 -9 13 -10 17 -21 12 -35 -3 -12 -3 -21 2 -21 4 0 9 -14 10 -30 1 -20 -2 -30
-12 -30 -7 0 -16 -6 -19 -12 -3 -7 -5 6 -3 30 2 29 -1 42 -10 42 -7 0 -13 6
-13 13 -1 6 -9 2 -19 -10 -11 -13 -24 -23 -30 -23 -6 0 -11 -4 -11 -10 0 -5 6
-10 13 -10 8 0 14 -6 14 -13 0 -18 -69 -7 -75 12 -3 9 2 11 17 6 12 -4 21 -2
21 4 0 6 -5 11 -11 11 -6 0 -9 6 -6 13 2 6 10 11 16 10 14 -4 15 14 1 22 -16
10 -12 35 5 29 8 -4 15 -1 15 5 0 6 -4 11 -8 11 -5 0 -9 15 -9 33 0 17 2 25 4
16 3 -12 11 -15 26 -11z m614 -50 c8 -1 8 -9 2 -25 -5 -15 -5 -22 0 -18 15 8
25 -15 12 -28 -13 -13 -15 -31 -2 -23 5 3 12 -2 15 -11 4 -9 1 -20 -6 -25 -9
-5 -6 -8 10 -8 38 0 24 -18 -18 -22 -40 -3 -54 7 -25 18 12 5 10 11 -12 32
-16 15 -29 20 -31 13 -2 -6 -10 -11 -17 -11 -7 0 -15 -9 -18 -20 -3 -11 -1
-18 4 -14 5 3 9 -2 9 -10 0 -11 -9 -16 -27 -16 -14 0 -35 -8 -46 -17 -19 -17
-20 -17 -10 2 6 11 8 26 5 34 -2 8 0 11 6 7 6 -3 18 -3 29 1 16 6 15 8 -7 14
l-25 7 23 7 c25 8 29 20 7 29 -19 7 -20 26 -1 26 9 0 12 7 9 19 -3 12 3 24 17
34 19 13 37 14 97 5z m-160 -30 c-3 -8 -6 -5 -6 6 -1 11 2 17 5 13 3 -3 4 -12
1 -19z m-413 -73 c-4 -8 -10 -12 -15 -9 -14 8 -10 24 6 24 9 0 12 -6 9 -15z
m-100 -46 c-3 -5 -10 -7 -15 -3 -5 3 -7 10 -3 15 3 5 10 7 15 3 5 -3 7 -10 3
-15z m636 6 c0 -8 -4 -15 -9 -15 -13 0 -22 16 -14 24 11 11 23 6 23 -9z m-550
-10 c11 -13 10 -14 -4 -9 -9 3 -16 10 -16 15 0 13 6 11 20 -6z m-73 -49 c-15
-31 -20 -27 -11 8 3 14 10 24 14 21 5 -3 3 -16 -3 -29z m716 9 c-7 -21 -13
-19 -13 6 0 11 4 18 10 14 5 -3 7 -12 3 -20z m-83 -10 c-7 -8 -17 -15 -22 -15
-6 0 -5 7 2 15 7 8 17 15 22 15 6 0 5 -7 -2 -15z m-2990 -37 c7 -23 22 -57 36
-77 13 -20 20 -39 15 -45 -5 -6 -11 -24 -15 -39 -8 -35 -35 -33 -53 3 -10 19
-13 21 -13 7 0 -26 -28 -32 -50 -12 -23 20 -25 13 -14 -43 5 -26 13 -32 52
-42 54 -13 72 -26 72 -49 0 -29 -19 -39 -58 -30 -43 9 -53 0 -46 -46 3 -22 0
-19 -12 15 -11 29 -18 91 -21 175 -4 108 -2 133 11 150 l16 20 -6 -20 c-3 -12
1 -9 11 8 23 39 41 34 65 -19 23 -52 24 -64 10 -64 -6 0 -13 14 -17 31 -3 17
-12 33 -19 36 -20 7 -54 -34 -54 -66 0 -33 25 -65 43 -54 8 5 8 8 -1 11 -26 8
-33 41 -16 67 9 14 20 25 24 25 3 0 14 -27 23 -60 18 -62 37 -83 29 -31 -2 16
1 32 7 35 6 4 11 2 11 -4 0 -6 5 -8 11 -5 7 5 3 15 -10 29 -24 25 -51 87 -51
116 0 32 8 23 20 -22z m2386 17 c-20 -21 -21 -45 -1 -45 8 0 16 10 16 23 l2
22 4 -22 c5 -27 18 -29 33 -5 9 15 10 15 8 0 -4 -23 16 -24 22 -1 5 19 30 30
30 14 0 -5 -6 -12 -12 -14 -10 -4 -10 -7 0 -15 9 -6 6 -11 -13 -20 -15 -7 -25
-8 -25 -2 0 6 -19 10 -42 10 -44 1 -88 23 -69 35 6 3 11 0 12 -7 0 -9 2 -8 6
2 8 20 35 51 41 46 2 -3 -3 -12 -12 -21z m684 -39 c0 -5 -7 -1 -15 10 -8 10
-14 24 -14 29 0 6 6 1 14 -9 8 -11 15 -24 15 -30z m-174 -1 c-4 -14 -4 -25 -2
-25 2 0 11 -3 20 -6 9 -3 16 -1 16 6 0 6 -4 8 -10 5 -5 -3 -10 -2 -10 4 0 5 4
12 9 15 10 7 21 -17 21 -45 0 -10 7 -19 15 -19 12 0 14 7 9 28 -6 27 -6 27 10
6 8 -12 27 -21 40 -21 21 0 25 4 21 21 -2 11 -4 25 -4 29 -1 5 -5 5 -11 2 -5
-3 -10 2 -10 11 0 16 1 16 20 -1 11 -10 20 -25 20 -34 0 -13 2 -13 9 -2 6 9
11 10 15 3 11 -19 -37 -40 -107 -47 -41 -5 -67 -12 -66 -19 3 -22 -1 -36 -10
-36 -6 0 -6 12 -1 32 8 25 5 38 -11 65 -12 19 -19 37 -15 40 3 4 6 1 6 -5 0
-7 5 -12 10 -12 6 0 10 7 10 15 0 8 3 15 6 15 3 0 3 -11 0 -25z m-591 -5 c25
0 36 -24 25 -55 -7 -17 -8 -15 -11 10 -3 25 -8 30 -30 28 -23 -1 -26 2 -21 20
3 12 7 16 10 9 2 -6 14 -12 27 -12z m2546 -51 l-9 -44 -1 41 c-1 22 2 44 6 47
12 12 13 1 4 -44z m50 24 c-4 -16 -6 -34 -4 -40 3 -7 0 -13 -6 -13 -12 0 -15
39 -5 64 10 27 23 17 15 -11z m-1768 -13 c4 -17 2 -20 -14 -15 -13 4 -19 2
-19 -9 0 -9 -4 -16 -10 -16 -19 0 -10 32 10 37 11 3 20 9 20 14 0 16 8 9 13
-11z m-3269 -78 c-13 -12 -15 -28 -10 -74 3 -31 3 -71 -1 -89 l-6 -31 -14 39
c-36 95 -37 103 -25 137 7 18 12 47 12 65 l0 33 30 -32 c27 -29 28 -33 14 -48z
m1334 3 c-4 -49 -13 -76 -21 -64 -8 11 6 119 15 119 7 0 9 -21 6 -55z m-1424
-48 c5 -31 4 -47 -3 -47 -6 0 -11 7 -11 16 0 8 -4 12 -10 9 -12 -7 -13 36 -3
86 6 33 7 33 13 9 4 -14 10 -47 14 -73z m2568 61 c10 -24 41 -23 63 2 10 11
20 18 22 16 7 -6 -9 -36 -17 -31 -4 2 -15 -4 -25 -15 -25 -28 -38 -25 -56 15
-10 21 -12 33 -5 32 6 -1 14 -10 18 -19z m129 -1 c-10 -9 -11 -8 -5 6 3 10 9
15 12 12 3 -3 0 -11 -7 -18z m2504 2 c7 -22 -28 -69 -52 -69 -21 0 -15 16 12
34 19 12 24 23 20 37 -4 10 -2 19 4 19 5 0 13 -9 16 -21z m-78 -25 c-26 -24
-27 -24 -27 -4 0 12 9 24 23 29 33 13 34 3 4 -25z m-5178 -54 c1 -26 -2 -31
-9 -20 -8 12 -10 12 -11 -5 l0 -20 -9 20 c-13 30 -12 83 3 88 15 5 25 -18 26
-63z m3384 57 c7 4 4 -5 -5 -20 -10 -14 -18 -33 -18 -42 0 -19 -5 -19 -35 1
-20 13 -25 14 -25 3 -1 -8 -7 -3 -15 11 -22 38 -18 46 9 21 32 -30 60 -24 65
14 2 17 6 24 8 17 3 -6 10 -9 16 -5z m-696 -29 c-3 -8 -6 -5 -6 6 -1 11 2 17
5 13 3 -3 4 -12 1 -19z m497 6 c3 -8 2 -12 -4 -9 -6 3 -10 10 -10 16 0 14 7
11 14 -7z m-604 -52 c0 -13 4 -20 10 -17 6 4 10 -5 10 -20 0 -23 3 -26 29 -22
17 3 35 8 40 12 17 10 13 -6 -6 -27 -9 -10 -11 -18 -6 -18 18 0 30 23 31 57 1
34 32 93 32 61 0 -9 -4 -20 -10 -23 -5 -3 -10 -16 -9 -28 1 -20 2 -20 9 3 4
14 9 21 9 15 1 -5 13 4 27 20 l26 30 -17 -33 c-16 -34 -16 -34 7 -27 l23 7
-23 -22 c-19 -18 -21 -24 -10 -31 10 -6 8 -9 -8 -9 -11 0 -33 -13 -49 -30 -26
-27 -27 -30 -9 -30 11 0 30 7 43 17 18 12 23 13 19 2 -2 -8 -14 -19 -26 -25
-20 -10 -20 -12 -5 -27 15 -15 14 -17 -11 -27 l-27 -10 20 -29 c29 -40 27 -44
-19 -37 -22 3 -40 2 -40 -2 0 -5 -7 -9 -15 -9 -9 0 -14 5 -12 11 3 6 10 10 16
9 12 -3 13 9 2 46 l-7 24 -17 -26 c-10 -15 -23 -27 -29 -27 -7 0 -5 7 4 18 30
35 32 45 7 38 -23 -7 -23 -7 -5 8 20 16 20 16 0 17 -10 1 -26 0 -34 -1 -12 -1
-12 1 -3 11 10 10 9 15 -5 26 -15 13 -15 13 5 8 19 -5 22 -3 16 12 -3 10 -15
31 -27 47 -11 16 -15 26 -8 23 14 -10 32 23 32 60 0 22 2 25 10 13 5 -8 10
-25 10 -38z m2665 10 c-8 -8 -25 10 -19 20 4 6 9 5 15 -3 4 -7 6 -15 4 -17z
m-1825 -43 c0 -16 4 -29 9 -29 17 0 20 -30 6 -70 -14 -41 -14 -41 8 -35 19 5
20 5 4 -5 -9 -6 -15 -16 -11 -21 3 -6 -1 -9 -9 -7 -9 2 -16 -1 -16 -5 0 -5 -7
-14 -17 -21 -16 -12 -16 -14 2 -42 l18 -29 -28 25 -28 25 2 -25 c3 -38 1 -50
-10 -50 -5 0 -11 10 -11 23 l-2 22 -4 -22 c-5 -26 -23 -31 -23 -7 0 11 -5 14
-17 9 -15 -5 -16 -4 -5 6 18 19 15 29 -11 29 -14 0 -24 6 -24 15 0 8 6 15 12
15 17 0 40 29 31 38 -4 3 -21 -1 -38 -11 -25 -14 -29 -15 -18 -2 7 8 9 15 4
15 -5 0 -20 10 -34 21 -22 18 -23 19 -3 9 31 -15 113 -29 113 -19 0 14 -56 48
-76 45 -10 -2 -13 -1 -6 1 18 7 15 21 -8 33 -11 6 -20 15 -20 21 0 6 7 6 20
-1 19 -10 19 -9 8 15 -8 18 -14 22 -19 13 -5 -8 -8 -5 -6 9 1 22 1 22 29 -4
26 -25 28 -25 28 -7 0 35 30 25 31 -10 1 -17 1 -35 0 -40 -3 -14 21 -56 31
-56 5 0 2 14 -7 30 -9 17 -12 30 -7 30 4 0 13 12 19 28 l11 27 -1 -32 c-1 -19
-5 -29 -12 -26 -5 4 -7 2 -2 -2 4 -5 16 -10 27 -12 17 -2 20 3 20 35 0 27 3
33 10 22 7 -11 10 -3 10 28 0 26 4 41 10 37 6 -3 10 -19 10 -36z m-760 -1 c0
-5 -4 -8 -10 -8 -5 0 -10 10 -10 23 0 18 2 19 10 7 5 -8 10 -18 10 -22z m2627
15 c-4 -3 1 -12 10 -18 13 -10 16 -25 14 -61 -1 -27 -4 -50 -5 -51 -1 -1 -12
0 -25 4 -17 4 -21 11 -17 28 4 15 0 25 -13 31 -16 8 -17 12 -5 42 8 18 21 32
31 32 9 0 13 -3 10 -7z m-76 -20 c1 -18 1 -23 -3 -45 -2 -7 3 -12 10 -10 20 4
14 -23 -12 -47 -24 -23 -24 -23 -35 -3 -13 25 -15 84 -2 64 6 -10 10 -3 15 22
7 37 25 49 27 19z m-70 -44 l-10 -24 0 26 c-1 14 2 29 6 33 12 12 14 -9 4 -35z
m-4791 -64 c0 -39 -4 -65 -11 -65 -6 0 -8 16 -5 43 2 23 5 52 5 65 1 12 3 22
6 22 3 0 5 -29 5 -65z m25 -6 c-5 -44 -13 -47 -12 -5 1 20 5 36 9 36 4 0 5
-14 3 -31z m4646 -48 c3 0 6 -7 6 -15 0 -11 -6 -11 -36 1 -20 8 -37 17 -39 18
-3 3 55 0 69 -4z m-4811 -22 c11 -20 13 -20 31 -3 25 22 45 6 60 -48 13 -52 6
-58 -15 -13 -20 41 -32 44 -48 10 -15 -32 -21 -32 -35 5 -12 32 -37 40 -47 15
-3 -8 -10 -15 -16 -15 -17 0 -11 29 10 50 26 26 46 25 60 -1z m2506 12 c-4 -5
0 -12 6 -14 8 -4 9 -6 2 -6 -6 -1 -17 6 -24 14 -10 12 -9 15 4 15 10 0 15 -4
12 -9z m2354 -1 c0 -5 -4 -10 -10 -10 -5 0 -10 5 -10 10 0 6 5 10 10 10 6 0
10 -4 10 -10z m-4725 -40 c1 -11 -2 -20 -7 -20 -4 0 -8 12 -8 27 0 30 13 24
15 -7z m4614 -13 c6 -8 8 -17 4 -20 -12 -13 -32 -7 -43 13 -9 17 -8 20 8 20
11 0 25 -6 31 -13z m86 -30 c-6 -22 -10 -24 -25 -15 -17 11 -17 14 -3 35 19
29 37 16 28 -20z m-4849 1 c12 -42 29 -45 44 -8 16 39 26 38 34 -5 8 -40 2
-55 -20 -55 -8 0 -12 -4 -9 -10 12 -19 33 -10 43 18 6 15 11 21 11 14 3 -48
-54 -72 -65 -27 -7 27 -34 35 -34 10 0 -9 -7 -18 -15 -22 -19 -7 -55 24 -54
46 0 11 3 9 9 -5 11 -29 29 -39 43 -25 8 8 7 11 -6 11 -9 0 -19 11 -23 25 -8
34 2 44 21 19 13 -17 14 -17 15 -2 0 9 -4 20 -10 23 -12 8 -13 25 -1 25 4 0
12 -14 17 -32z m5124 13 c19 -5 45 -13 58 -17 18 -5 24 -2 29 15 7 25 8 26 31
4 13 -14 17 -34 16 -96 0 -43 -6 -83 -12 -89 -8 -8 -9 -5 -5 11 4 16 1 21 -14
21 -11 0 -39 21 -62 47 -39 44 -42 46 -58 30 -16 -16 -16 -18 5 -37 12 -12 22
-26 22 -32 0 -7 -14 1 -30 17 -22 21 -33 26 -41 18 -14 -14 -78 25 -79 49 0
19 19 16 55 -9 26 -18 30 -17 49 12 16 24 16 25 -24 45 -22 11 -40 22 -40 25
0 6 59 -2 100 -14z m-5193 -23 c-3 -8 -6 -5 -6 6 -1 11 2 17 5 13 3 -3 4 -12
1 -19z m213 -48 c0 -69 -16 -101 -18 -37 -2 36 7 107 14 107 2 0 4 -31 4 -70z
m27 50 c-1 -11 -5 -20 -9 -20 -10 0 -10 4 -2 24 8 22 13 20 11 -4z m4578 -11
c4 -5 4 -17 1 -25 -5 -14 -21 -9 -65 23 -2 1 2 9 9 18 12 15 41 7 55 -16z m65
-31 c0 -6 -6 -5 -15 2 -8 7 -15 14 -15 16 0 2 7 1 15 -2 8 -4 15 -11 15 -16z
m-4645 2 c3 -5 1 -10 -4 -10 -6 0 -11 5 -11 10 0 6 2 10 4 10 3 0 8 -4 11 -10z
m4546 -6 c10 -13 10 -17 -1 -24 -7 -4 -10 -15 -7 -24 8 -20 55 -21 77 -1 15
14 18 14 30 0 10 -12 10 -15 -3 -15 -9 0 -19 -5 -23 -12 -5 -8 -2 -9 10 -5 9
4 15 3 12 -2 -3 -5 -52 -12 -108 -16 -99 -7 -165 -26 -153 -45 3 -4 -7 -5 -22
-1 -31 8 -43 42 -22 67 17 20 97 54 114 48 20 -8 28 -36 13 -46 -7 -4 -8 -8
-2 -8 5 0 15 5 22 12 9 9 12 8 12 -5 0 -16 30 -24 42 -12 7 7 -15 75 -24 75
-5 0 -8 -4 -8 -10 0 -15 -36 -12 -50 5 -13 15 -5 20 27 16 6 -1 14 3 18 9 9
15 31 12 46 -6z m-4525 -122 c-13 -13 -16 9 -9 64 l8 59 3 -59 c2 -32 1 -61
-2 -64z m4839 67 c25 -23 45 -37 45 -32 0 5 -5 14 -11 20 -13 13 2 25 18 15
15 -10 45 -72 34 -72 -4 0 -14 7 -21 15 -7 8 -17 12 -22 9 -6 -4 -37 6 -69 22
-56 26 -58 29 -42 46 9 10 18 18 20 18 2 0 24 -19 48 -41z m-4860 11 c3 -5 1
-10 -4 -10 -6 0 -11 5 -11 10 0 6 2 10 4 10 3 0 8 -4 11 -10z m4813 -36 c18
-13 21 -19 11 -30 -14 -18 -47 -18 -88 -1 -34 14 -31 27 5 27 13 0 26 5 29 10
8 14 17 13 43 -6z m-4818 -41 c0 -13 -4 -22 -10 -18 -5 3 -7 12 -3 20 3 8 0
15 -5 15 -6 0 -13 -10 -15 -22 -3 -17 -5 -15 -6 9 -1 26 2 30 19 26 13 -4 20
-14 20 -30z m-137 11 c45 -8 71 -38 56 -65 -8 -15 -17 -17 -55 -12 -37 5 -47
2 -59 -13 -21 -29 -50 -6 -49 39 2 56 10 69 41 63 16 -3 45 -8 66 -12z m4567
-19 c-7 -9 -15 -13 -19 -10 -3 3 1 10 9 15 21 14 24 12 10 -5z m306 -2 c18
-24 17 -31 -3 -36 -16 -4 -16 -5 -1 -6 23 -1 32 17 18 34 -8 10 -9 15 -2 15 6
0 14 -4 17 -10 3 -5 24 -14 46 -20 34 -9 45 -8 66 5 17 12 35 15 57 10 17 -4
46 -7 64 -6 28 0 31 -3 21 -15 -9 -11 -8 -14 10 -14 43 0 18 -16 -84 -54 -98
-36 -110 -39 -177 -33 -40 4 -83 10 -96 13 l-22 6 20 18 c18 16 33 17 98 13
104 -8 106 -14 4 -12 -46 1 -85 -1 -89 -4 -12 -13 203 1 251 15 l49 15 -31 6
c-61 12 -254 -4 -296 -25 -31 -16 -44 -18 -62 -9 -21 9 -22 14 -14 36 6 15 10
27 10 28 0 1 -39 1 -87 -1 -62 -2 -84 0 -73 8 8 5 56 10 105 11 50 0 106 7
125 14 48 18 61 18 76 -2z m131 -10 c-8 -7 -37 9 -31 19 3 5 12 4 20 -3 8 -6
13 -14 11 -16z m-4850 -35 c-3 -7 -5 -2 -5 12 0 14 2 19 5 13 2 -7 2 -19 0
-25z m-50 -10 c-3 -7 -5 -2 -5 12 0 14 2 19 5 13 2 -7 2 -19 0 -25z m2373 -47
c0 -10 -6 -8 -21 7 -11 12 -17 27 -14 33 8 12 34 -19 35 -40z m610 24 c0 -8
-4 -15 -10 -15 -5 0 -7 7 -4 15 4 8 8 15 10 15 2 0 4 -7 4 -15z m-2980 -15 c0
-11 -4 -20 -10 -20 -5 0 -10 9 -10 20 0 11 5 20 10 20 6 0 10 -9 10 -20z
m3023 -16 c3 -3 -4 -15 -15 -26 -24 -24 -34 -18 -18 11 11 21 22 26 33 15z
m-824 -93 c8 -5 9 -11 3 -15 -14 -8 -43 4 -36 15 7 11 15 11 33 0z m66 -11
c-3 -5 -14 -10 -23 -10 -15 0 -15 2 -2 10 20 13 33 13 25 0z m935 -40 c0 -5
-12 -10 -27 -9 l-28 1 25 8 c14 4 26 8 28 9 1 1 2 -3 2 -9z m-93 -6 c-3 -3
-12 -4 -19 -1 -8 3 -5 6 6 6 11 1 17 -2 13 -5z m-2079 -113 c3 -123 -7 -153
-32 -91 -9 24 -20 72 -23 108 -5 56 -4 67 13 79 33 24 39 10 42 -96z m-214 73
c21 -8 21 -75 0 -115 -20 -39 -34 -28 -65 47 -18 47 -20 57 -8 65 16 10 51 12
73 3z m-105 -69 l0 -20 -9 20 c-5 11 -9 27 -9 35 -1 13 0 13 9 0 5 -8 9 -24 9
-35z m-277 -34 l-8 -22 -14 25 c-12 23 -11 28 6 47 l19 21 3 -24 c2 -13 -1
-34 -6 -47z m-42 10 c0 -15 -3 -49 -6 -75 l-7 -47 -18 28 c-11 16 -19 46 -19
70 0 40 5 46 43 52 4 0 7 -12 7 -28z"/>
<path d="M1415 3972 c-8 -8 -6 -40 3 -45 4 -2 17 -1 29 2 l22 6 -24 21 c-13
12 -27 19 -30 16z"/>
<path d="M1486 3955 c4 -8 11 -15 16 -15 6 0 5 6 -2 15 -7 8 -14 15 -16 15 -2
0 -1 -7 2 -15z"/>
<path d="M1120 3940 c-24 -8 -23 -8 8 -9 17 -1 32 4 32 9 0 11 -5 11 -40 0z"/>
<path d="M1105 3910 c-7 -12 2 -12 30 0 19 8 19 9 -2 9 -12 1 -25 -3 -28 -9z"/>
<path d="M1170 3910 c0 -5 11 -10 24 -10 14 0 28 5 31 10 4 6 -7 10 -24 10
-17 0 -31 -4 -31 -10z"/>
<path d="M1435 3890 c3 -5 10 -10 16 -10 5 0 9 5 9 10 0 6 -7 10 -16 10 -8 0
-12 -4 -9 -10z"/>
<path d="M1408 3853 c-7 -52 -2 -60 32 -55 41 6 42 23 5 61 l-33 33 -4 -39z"/>
<path d="M1370 3860 c0 -5 5 -10 11 -10 5 0 7 5 4 10 -3 6 -8 10 -11 10 -2 0
-4 -4 -4 -10z"/>
<path d="M1500 3856 c0 -9 5 -16 10 -16 6 0 10 4 10 9 0 6 -4 13 -10 16 -5 3
-10 -1 -10 -9z"/>
<path d="M935 3810 c-3 -5 3 -10 14 -10 12 0 21 5 21 10 0 6 -6 10 -14 10 -8
0 -18 -4 -21 -10z"/>
<path d="M1386 3764 c-4 -10 -1 -14 6 -12 15 5 23 28 10 28 -5 0 -13 -7 -16
-16z"/>
<path d="M1466 3763 c-6 -14 -5 -15 5 -6 7 7 10 15 7 18 -3 3 -9 -2 -12 -12z"/>
<path d="M5050 4270 c0 -5 5 -10 10 -10 6 0 10 5 10 10 0 6 -4 10 -10 10 -5 0
-10 -4 -10 -10z"/>
<path d="M6170 4260 c0 -5 5 -10 10 -10 6 0 10 5 10 10 0 6 -4 10 -10 10 -5 0
-10 -4 -10 -10z"/>
<path d="M6490 4260 c0 -5 7 -10 16 -10 8 0 12 5 9 10 -3 6 -10 10 -16 10 -5
0 -9 -4 -9 -10z"/>
<path d="M5570 3781 c0 -5 7 -12 16 -15 8 -3 13 -2 9 3 -3 5 1 12 7 14 7 3 3
6 -9 6 -13 1 -23 -3 -23 -8z"/>
<path d="M5526 3306 c-3 -13 -8 -32 -12 -43 -3 -10 4 -2 15 17 23 39 25 50 12
50 -5 0 -12 -11 -15 -24z"/>
<path d="M5828 3276 c-10 -7 -18 -26 -18 -41 0 -24 2 -26 16 -14 13 11 17 10
25 -4 6 -9 14 -17 19 -17 14 0 12 64 -2 78 -15 15 -19 15 -40 -2z"/>
<path d="M5970 3281 c0 -5 7 -15 17 -22 15 -13 15 -12 4 9 -12 23 -21 28 -21
13z"/>
<path d="M5545 3237 c-22 -11 -34 -22 -27 -24 19 -7 83 7 77 16 -2 5 6 11 20
13 19 4 25 1 25 -13 0 -24 16 -25 24 -2 15 37 -55 43 -119 10z"/>
<path d="M5960 3226 c0 -2 7 -7 16 -10 8 -3 12 -2 9 4 -6 10 -25 14 -25 6z"/>
<path d="M5928 3213 c7 -3 16 -2 19 1 4 3 -2 6 -13 5 -11 0 -14 -3 -6 -6z"/>
<path d="M5711 3176 c-10 -12 -8 -13 8 -9 12 3 18 9 15 14 -7 12 -10 11 -23
-5z"/>
<path d="M5847 3157 c-4 -10 -7 -28 -6 -40 0 -21 1 -21 10 2 5 14 8 32 7 40
-3 13 -5 13 -11 -2z"/>
<path d="M5717 3104 c-48 -26 -103 -67 -82 -61 54 16 73 18 79 9 6 -11 -17
-113 -31 -135 -9 -14 -10 -18 -11 -79 -2 -56 -16 -62 -32 -13 -6 19 -24 45
-39 58 -25 21 -48 80 -43 112 1 6 -9 11 -23 11 -25 2 -33 -10 -16 -21 5 -3 17
-31 26 -63 32 -108 76 -212 88 -206 7 3 4 -1 -5 -9 -16 -13 -14 -14 24 -11 42
3 78 -15 78 -39 0 -6 16 -25 35 -44 39 -38 38 -41 37 64 0 38 -7 75 -17 95
-22 44 -32 182 -15 203 7 9 8 15 2 15 -5 0 -14 13 -20 28 -8 23 -6 33 9 53 36
47 13 64 -44 33z"/>
<path d="M5480 3081 c0 -5 7 -12 16 -15 14 -5 15 -4 4 9 -14 17 -20 19 -20 6z"/>
<path d="M5355 3070 c-3 -5 -1 -10 4 -10 6 0 11 5 11 10 0 6 -2 10 -4 10 -3 0
-8 -4 -11 -10z"/>
<path d="M5511 3034 c0 -11 3 -14 6 -6 3 7 2 16 -1 19 -3 4 -6 -2 -5 -13z"/>
<path d="M5870 2975 c0 -8 5 -15 10 -15 6 0 10 7 10 15 0 8 -4 15 -10 15 -5 0
-10 -7 -10 -15z"/>
<path d="M5425 2910 c1 -24 8 -46 14 -48 16 -5 14 51 -3 74 -13 17 -14 15 -11
-26z"/>
<path d="M5880 2940 c0 -18 34 -29 52 -16 10 7 15 16 11 19 -10 11 -63 8 -63
-3z"/>
<path d="M5915 2890 c3 -5 13 -10 21 -10 8 0 14 5 14 10 0 6 -9 10 -21 10 -11
0 -17 -4 -14 -10z"/>
<path d="M5410 2847 c0 -10 8 -17 18 -17 9 0 13 4 7 8 -5 4 -13 11 -17 16 -5
5 -8 2 -8 -7z"/>
<path d="M5280 2816 c0 -8 4 -17 9 -20 5 -4 7 3 4 14 -6 23 -13 26 -13 6z"/>
<path d="M5942 2742 c-32 -5 -27 -48 5 -45 21 2 22 0 16 -47 -6 -53 -1 -58 41
-41 14 5 16 10 7 15 -6 4 -9 16 -6 27 4 11 -3 34 -17 56 -18 29 -28 37 -46 35z"/>
<path d="M5875 2710 c-3 -5 3 -10 15 -10 12 0 18 5 15 10 -3 6 -10 10 -15 10
-5 0 -12 -4 -15 -10z"/>
<path d="M5557 2699 c7 -7 15 -10 18 -7 3 3 -2 9 -12 12 -14 6 -15 5 -6 -5z"/>
<path d="M5477 2618 c-17 -18 -17 -18 8 -12 20 5 25 3 25 -14 0 -23 29 -37 44
-22 8 8 7 13 -3 19 -9 6 -4 9 15 9 16 0 34 -3 39 -7 6 -3 -1 4 -15 16 -27 25
-40 29 -40 13 0 -6 -11 -5 -27 3 -25 12 -30 12 -46 -5z"/>
<path d="M5840 2620 c0 -11 4 -20 9 -20 5 0 7 9 4 20 -3 11 -7 20 -9 20 -2 0
-4 -9 -4 -20z"/>
<path d="M5470 2552 c0 -4 9 -25 20 -47 11 -22 20 -32 20 -22 0 9 4 17 9 17
18 0 -1 38 -25 49 -13 6 -24 7 -24 3z"/>
<path d="M5971 2547 c0 -7 4 -21 8 -32 7 -18 8 -17 13 7 3 17 0 29 -8 32 -8 3
-14 0 -13 -7z"/>
<path d="M5541 2527 c-1 -21 4 -30 19 -34 10 -3 22 -14 26 -25 5 -18 7 -18 20
7 16 32 18 55 4 55 -5 0 -10 -10 -10 -22 -1 -22 -1 -23 -15 -4 -8 11 -15 14
-15 8 0 -24 -19 -11 -23 16 l-4 27 -2 -28z"/>
<path d="M5717 2460 c-3 -11 -1 -20 4 -20 5 0 9 9 9 20 0 11 -2 20 -4 20 -2 0
-6 -9 -9 -20z"/>
<path d="M5962 2463 c-14 -28 -23 -85 -12 -78 6 3 10 15 10 26 0 11 5 29 11
41 6 11 8 22 6 25 -3 2 -10 -4 -15 -14z"/>
<path d="M5402 2435 c0 -16 2 -22 5 -12 2 9 2 23 0 30 -3 6 -5 -1 -5 -18z"/>
<path d="M5284 2395 c-6 -14 4 -71 10 -64 10 12 16 79 6 79 -6 0 -13 -7 -16
-15z"/>
<path d="M5521 2369 c-1 -33 3 -49 14 -53 19 -7 19 16 0 64 l-13 35 -1 -46z"/>
<path d="M5810 2365 c0 -16 16 -20 24 -6 3 5 -1 11 -9 15 -9 3 -15 0 -15 -9z"/>
<path d="M5716 2354 c-11 -7 -16 -17 -13 -21 4 -4 15 1 24 10 22 21 14 30 -11
11z"/>
<path d="M5598 2304 c-6 -6 2 -44 9 -44 2 0 11 6 18 14 10 10 11 16 2 25 -12
12 -21 14 -29 5z"/>
<path d="M5974 2273 c-26 -3 -33 -10 -38 -35 -3 -17 -4 -33 -2 -36 12 -11 44
12 58 43 8 19 15 34 14 33 0 0 -15 -3 -32 -5z"/>
<path d="M5527 2253 c-3 -5 0 -19 6 -33 10 -25 13 -35 15 -57 3 -22 22 -14 32
12 15 39 -34 110 -53 78z"/>
<path d="M5775 2250 c-3 -5 -3 -14 0 -20 3 -5 -1 -10 -9 -10 -9 0 -16 5 -16
10 0 6 -11 3 -25 -6 -13 -8 -29 -13 -34 -10 -5 4 -12 2 -16 -4 -3 -6 1 -13 9
-16 9 -3 17 -16 17 -28 1 -19 2 -19 6 -2 3 11 8 14 12 8 4 -7 16 -6 39 3 27
12 32 19 32 50 0 36 -4 43 -15 25z"/>
<path d="M5846 2103 c-6 -14 -5 -15 5 -6 7 7 10 15 7 18 -3 3 -9 -2 -12 -12z"/>
<path d="M5855 2010 c-3 -5 -1 -10 4 -10 6 0 11 5 11 10 0 6 -2 10 -4 10 -3 0
-8 -4 -11 -10z"/>
<path d="M5324 1977 c-3 -9 1 -24 10 -33 16 -15 16 -14 12 11 -6 35 -14 42
-22 22z"/>
<path d="M5440 1945 c-9 -10 -9 -15 -1 -15 6 0 11 -9 11 -20 0 -11 5 -20 11
-20 6 0 9 6 6 14 -3 8 -1 16 5 18 13 5 3 38 -10 38 -5 0 -15 -7 -22 -15z"/>
<path d="M5957 1933 c-14 -14 -7 -43 11 -42 9 0 12 3 6 5 -7 3 -10 14 -7 24 5
20 2 25 -10 13z"/>
<path d="M5376 1875 c-5 -13 -2 -14 17 -4 32 17 33 19 10 19 -12 0 -23 -7 -27
-15z"/>
<path d="M5605 1838 c10 -32 45 -88 55 -88 5 0 12 5 15 10 3 6 0 10 -7 10 -8
0 -22 20 -32 45 -19 46 -43 63 -31 23z"/>
<path d="M5450 1805 c0 -8 4 -15 10 -15 5 0 7 7 4 15 -4 8 -8 15 -10 15 -2 0
-4 -7 -4 -15z"/>
<path d="M5450 1705 c-10 -12 -10 -15 4 -15 9 0 16 7 16 15 0 8 -2 15 -4 15
-2 0 -9 -7 -16 -15z"/>
<path d="M5631 1587 c1 -32 7 -60 12 -64 8 -5 -1 107 -10 117 -2 2 -3 -21 -2
-53z"/>
<path d="M5442 1598 c3 -34 20 -42 26 -12 3 11 0 14 -9 9 -9 -6 -11 -2 -7 13
4 12 2 22 -4 22 -5 0 -8 -15 -6 -32z"/>
<path d="M5450 1540 c0 -5 5 -10 10 -10 6 0 10 5 10 10 0 6 -4 10 -10 10 -5 0
-10 -4 -10 -10z"/>
<path d="M5560 1534 c0 -11 8 -14 27 -12 39 4 42 28 4 28 -21 0 -31 -5 -31
-16z"/>
<path d="M5632 1485 c0 -16 2 -22 5 -12 2 9 2 23 0 30 -3 6 -5 -1 -5 -18z"/>
<path d="M5986 1283 c10 -40 14 -41 14 -5 0 18 -5 32 -10 32 -6 0 -8 -11 -4
-27z"/>
<path d="M5381 1284 c0 -11 3 -14 6 -6 3 7 2 16 -1 19 -3 4 -6 -2 -5 -13z"/>
<path d="M5430 1279 c0 -15 18 -19 23 -6 3 8 -1 14 -9 14 -8 0 -14 -4 -14 -8z"/>
<path d="M5390 1240 c0 -8 5 -22 10 -30 9 -13 10 -13 10 0 0 8 -5 22 -10 30
-9 13 -10 13 -10 0z"/>
<path d="M5420 1240 c0 -6 7 -10 15 -10 8 0 15 2 15 4 0 2 -7 6 -15 10 -8 3
-15 1 -15 -4z"/>
<path d="M5430 1195 c0 -8 4 -15 10 -15 5 0 7 7 4 15 -4 8 -8 15 -10 15 -2 0
-4 -7 -4 -15z"/>
<path d="M5371 1174 c0 -11 3 -14 6 -6 3 7 2 16 -1 19 -3 4 -6 -2 -5 -13z"/>
<path d="M5430 1160 c0 -5 5 -10 10 -10 6 0 10 5 10 10 0 6 -4 10 -10 10 -5 0
-10 -4 -10 -10z"/>
<path d="M3417 3205 c-15 -14 -16 -20 -5 -26 17 -10 31 4 26 27 -3 17 -4 17
-21 -1z"/>
<path d="M3629 3189 c-6 -13 -7 -19 -1 -15 6 3 12 0 15 -6 2 -7 4 -1 4 15 1
33 -3 34 -18 6z"/>
<path d="M3370 3180 c0 -5 5 -10 10 -10 6 0 10 5 10 10 0 6 -4 10 -10 10 -5 0
-10 -4 -10 -10z"/>
<path d="M3460 3179 c0 -5 5 -7 10 -4 6 3 10 8 10 11 0 2 -4 4 -10 4 -5 0 -10
-5 -10 -11z"/>
<path d="M1307 2936 c-4 -10 -3 -15 3 -11 6 3 10 1 10 -6 0 -7 3 -10 6 -6 3 3
2 13 -4 22 -8 16 -9 16 -15 1z"/>
<path d="M1545 2938 c-21 -5 -45 -6 -52 -4 -9 4 -10 -1 -1 -22 7 -15 13 -28
14 -30 4 -8 104 24 104 33 0 24 -24 32 -65 23z"/>
<path d="M1378 2903 c7 -3 16 -2 19 1 4 3 -2 6 -13 5 -11 0 -14 -3 -6 -6z"/>
<path d="M1135 2800 c-8 -13 5 -13 25 0 13 8 13 10 -2 10 -9 0 -20 -4 -23 -10z"/>
<path d="M1190 2792 c0 -7 -4 -10 -10 -7 -5 3 -7 0 -4 -8 2 -7 11 -14 19 -14
17 0 18 6 5 27 -7 11 -10 11 -10 2z"/>
<path d="M1590 2780 c-8 -5 -11 -12 -8 -15 4 -4 17 0 30 9 24 17 5 23 -22 6z"/>
<path d="M1516 2762 c-9 -14 9 -31 23 -23 7 5 10 14 7 20 -8 13 -23 14 -30 3z"/>
<path d="M1248 2703 c7 -3 16 -2 19 1 4 3 -2 6 -13 5 -11 0 -14 -3 -6 -6z"/>
<path d="M1218 2683 c7 -3 16 -2 19 1 4 3 -2 6 -13 5 -11 0 -14 -3 -6 -6z"/>
<path d="M1300 2636 c0 -31 6 -34 13 -6 3 11 1 23 -4 26 -5 3 -9 -6 -9 -20z"/>
<path d="M978 2933 c7 -3 16 -2 19 1 4 3 -2 6 -13 5 -11 0 -14 -3 -6 -6z"/>
<path d="M2843 2390 c0 -30 2 -43 4 -27 2 15 2 39 0 55 -2 15 -4 2 -4 -28z"/>
<path d="M1395 2550 c-3 -5 -1 -10 4 -10 6 0 11 5 11 10 0 6 -2 10 -4 10 -3 0
-8 -4 -11 -10z"/>
<path d="M3970 2217 c0 -9 -3 -17 -7 -17 -5 0 -8 -11 -8 -24 0 -13 3 -22 7
-20 9 6 21 64 14 71 -3 4 -6 -1 -6 -10z"/>
<path d="M655 1781 c-3 -5 -1 -12 5 -16 5 -3 10 1 10 9 0 18 -6 21 -15 7z"/>
<path d="M585 1370 c-4 -17 -5 -34 -2 -36 3 -3 8 9 12 26 4 17 5 34 2 36 -3 3
-8 -9 -12 -26z"/>
<path d="M3165 1990 c3 -5 8 -10 11 -10 2 0 4 5 4 10 0 6 -5 10 -11 10 -5 0
-7 -4 -4 -10z"/>
<path d="M3175 1930 c-4 -6 -1 -17 5 -25 9 -11 17 -11 36 -3 22 10 22 12 6 24
-21 16 -39 18 -47 4z"/>
<path d="M3681 1937 c-17 -17 -13 -37 9 -37 11 0 20 2 20 4 0 2 3 11 6 19 7
18 -20 29 -35 14z"/>
<path d="M3644 1886 c11 -9 27 -16 35 -16 21 0 2 16 -29 24 -24 7 -24 6 -6 -8z"/>
<path d="M3781 1744 c0 -11 3 -14 6 -6 3 7 2 16 -1 19 -3 4 -6 -2 -5 -13z"/>
<path d="M690 1213 c0 -12 5 -25 10 -28 13 -8 13 15 0 35 -8 12 -10 11 -10 -7z"/>
<path d="M656 1006 c5 -14 35 -26 67 -26 31 0 18 19 -20 29 -49 14 -53 14 -47
-3z"/>
<path d="M3650 1220 c0 -5 5 -10 10 -10 6 0 10 5 10 10 0 6 -4 10 -10 10 -5 0
-10 -4 -10 -10z"/>
<path d="M581 1014 c0 -11 3 -14 6 -6 3 7 2 16 -1 19 -3 4 -6 -2 -5 -13z"/>
<path d="M3119 906 c16 -19 44 -21 39 -3 -3 6 -15 14 -28 15 -21 3 -22 2 -11
-12z"/>
<path d="M3110 853 c0 -12 5 -25 10 -28 13 -8 13 15 0 35 -8 12 -10 11 -10 -7z"/>
<path d="M3737 1000 c-3 -11 -1 -23 4 -26 5 -3 9 6 9 20 0 31 -6 34 -13 6z"/>
<path d="M3764 845 c3 -10 -1 -15 -12 -16 -9 0 -12 -3 -5 -5 16 -7 55 15 48
27 -10 15 -38 11 -31 -6z"/>
<path d="M701 754 c-12 -27 -11 -28 4 -12 10 9 16 21 13 28 -2 7 -10 -1 -17
-16z"/>
<path d="M5858 703 c7 -3 16 -2 19 1 4 3 -2 6 -13 5 -11 0 -14 -3 -6 -6z"/>
<path d="M5205 650 c-8 -13 18 -23 42 -17 12 3 8 5 -10 6 -16 0 -26 5 -22 11
3 6 4 10 1 10 -3 0 -8 -5 -11 -10z"/>
<path d="M584 576 c-8 -20 -1 -49 12 -53 7 -2 10 6 7 22 -6 27 -1 30 25 16 27
-13 92 -21 92 -10 0 12 -32 24 -87 34 -34 5 -44 4 -49 -9z"/>
<path d="M5470 570 c-8 -5 -12 -11 -10 -14 3 -2 14 2 24 10 22 15 10 19 -14 4z"/>
</g>
</svg>
