<svg xmlns="http://www.w3.org/2000/svg" xmlns:xlink="http://www.w3.org/1999/xlink" width="500" zoomAndPan="magnify" viewBox="0 0 375 374.999991" height="500" preserveAspectRatio="xMidYMid meet" version="1.0"><defs><g/><clipPath id="6c96e1db30"><path d="M 43.5 140 L 331.5 140 L 331.5 214 L 43.5 214 Z M 43.5 140 " clip-rule="nonzero"/></clipPath><clipPath id="6d170bb8c3"><path d="M 267 82.25 L 317 82.25 L 317 132 L 267 132 Z M 267 82.25 " clip-rule="nonzero"/></clipPath></defs><path fill="#ffffff" d="M 84.726562 168.953125 C 84.636719 170.960938 84.582031 172.984375 84.609375 175.007812 C 84.175781 175.832031 83.773438 176.671875 83.410156 177.511719 C 83.726562 174.621094 84.175781 171.757812 84.726562 168.953125 Z M 125.984375 105.5625 C 124.148438 107.613281 122.488281 109.898438 120.972656 112.386719 C 117.523438 114.121094 114.34375 116 111.457031 118.027344 C 115.890625 113.441406 120.757812 109.25 125.984375 105.5625 Z M 258.023438 118.011719 C 255.136719 115.988281 251.945312 114.09375 248.492188 112.371094 C 246.976562 109.855469 245.285156 107.558594 243.4375 105.488281 C 248.175781 108.828125 252.667969 112.589844 256.839844 116.769531 C 257.242188 117.15625 257.632812 117.59375 258.023438 118.011719 Z M 284.871094 174.996094 C 284.914062 172.941406 284.855469 170.917969 284.753906 168.894531 C 285.304688 171.699219 285.722656 174.519531 286.039062 177.382812 C 285.695312 176.585938 285.304688 175.777344 284.871094 174.996094 Z M 284.464844 210.304688 C 284.25 206.445312 283.167969 202.683594 281.261719 199.027344 C 283.167969 192.304688 284.335938 185.464844 284.726562 178.625 C 285.75 181.082031 286.371094 183.585938 286.648438 186.113281 C 286.660156 187.054688 286.703125 188.007812 286.703125 188.960938 C 286.703125 196.222656 285.9375 203.363281 284.464844 210.304688 Z M 254.542969 263.339844 C 254.789062 262.980469 255.003906 262.605469 255.222656 262.226562 C 256.03125 261.621094 256.8125 260.984375 257.605469 260.347656 C 257.34375 260.609375 257.097656 260.898438 256.839844 261.15625 C 256.089844 261.910156 255.308594 262.617188 254.542969 263.339844 Z M 111.816406 260.289062 C 112.613281 260.941406 113.40625 261.59375 114.214844 262.199219 C 114.429688 262.574219 114.664062 262.949219 114.90625 263.328125 C 114.140625 262.605469 113.375 261.894531 112.625 261.15625 C 112.351562 260.867188 112.089844 260.578125 111.816406 260.289062 Z M 94.847656 164.902344 C 94.933594 171.554688 95.773438 178.378906 97.417969 185.347656 C 97.550781 185.867188 97.679688 186.390625 97.808594 186.910156 C 96.882812 187.71875 96.003906 188.542969 95.167969 189.382812 C 92.625 191.925781 90.53125 194.558594 88.914062 197.234375 C 87.078125 190.367188 86.039062 183.394531 85.808594 176.414062 C 87.871094 172.363281 90.921875 168.503906 94.847656 164.902344 Z M 89.214844 153.21875 C 91.195312 149.402344 94.070312 145.789062 97.722656 142.433594 C 95.886719 148.910156 94.921875 155.691406 94.832031 162.675781 C 93.835938 163.542969 92.882812 164.425781 91.988281 165.308594 C 89.476562 167.835938 87.410156 170.410156 85.75 173.058594 C 85.765625 169.066406 86.054688 165.089844 86.601562 161.144531 C 87.367188 158.453125 88.25 155.808594 89.214844 153.21875 Z M 104.769531 125.6875 C 104.078125 126.890625 103.414062 128.117188 102.792969 129.363281 C 102.011719 130.042969 101.261719 130.707031 100.554688 131.414062 C 101.894531 129.449219 103.296875 127.523438 104.769531 125.6875 Z M 117.160156 119.949219 C 112.582031 122.277344 108.511719 124.820312 105 127.554688 C 106.113281 125.515625 107.339844 123.519531 108.65625 121.566406 C 111.917969 118.894531 115.703125 116.421875 119.90625 114.207031 C 118.90625 116.03125 117.984375 117.9375 117.160156 119.949219 Z M 139.011719 106.574219 C 138.144531 108.382812 137.363281 110.320312 136.671875 112.359375 C 133.753906 113.210938 130.921875 114.152344 128.179688 115.164062 C 124.828125 116.421875 121.695312 117.75 118.75 119.183594 C 119.660156 117.085938 120.667969 115.105469 121.78125 113.238281 C 126.964844 110.664062 132.757812 108.425781 139.011719 106.574219 Z M 131.082031 102.164062 C 132.570312 101.238281 134.070312 100.355469 135.601562 99.519531 C 139.023438 97.941406 142.738281 96.539062 146.664062 95.339844 C 143.949219 98.113281 141.625 101.398438 139.675781 105.199219 C 133.636719 106.949219 127.992188 109.046875 122.894531 111.445312 C 125.246094 107.859375 127.992188 104.753906 131.082031 102.164062 Z M 148.441406 93.632812 C 148.179688 93.691406 147.921875 93.761719 147.660156 93.851562 C 147.980469 93.71875 148.296875 93.605469 148.613281 93.488281 C 148.554688 93.53125 148.5 93.574219 148.441406 93.632812 Z M 165.902344 90.046875 C 160.671875 90.726562 155.632812 91.710938 150.851562 92.96875 C 150.882812 92.867188 150.894531 92.75 150.882812 92.648438 C 156.167969 90.785156 161.640625 89.339844 167.289062 88.371094 C 166.796875 88.875 166.335938 89.441406 165.902344 90.046875 Z M 218.628906 92.9375 C 213.847656 91.679688 208.808594 90.699219 203.566406 90.019531 C 203.144531 89.425781 202.699219 88.875 202.222656 88.371094 C 207.808594 89.339844 213.296875 90.742188 218.613281 92.605469 C 218.582031 92.722656 218.582031 92.824219 218.628906 92.9375 Z M 220.980469 93.574219 C 220.9375 93.53125 220.878906 93.488281 220.824219 93.429688 C 221.140625 93.558594 221.472656 93.675781 221.789062 93.804688 C 221.53125 93.734375 221.253906 93.648438 220.980469 93.574219 Z M 250.730469 119.152344 C 247.785156 117.738281 244.652344 116.390625 241.316406 115.148438 C 238.554688 114.136719 235.726562 113.195312 232.824219 112.34375 C 232.128906 110.304688 231.335938 108.382812 230.46875 106.546875 C 236.722656 108.410156 242.511719 110.636719 247.683594 113.226562 C 248.808594 115.089844 249.820312 117.070312 250.730469 119.152344 Z M 260.796875 121.523438 C 262.125 123.476562 263.351562 125.472656 264.464844 127.511719 C 260.957031 124.792969 256.898438 122.246094 252.320312 119.933594 C 251.496094 117.925781 250.570312 116 249.5625 114.179688 C 253.761719 116.40625 257.53125 118.851562 260.796875 121.523438 Z M 266.660156 129.316406 C 266.039062 128.046875 265.359375 126.800781 264.652344 125.558594 C 266.167969 127.480469 267.628906 129.433594 269 131.429688 C 268.25 130.722656 267.46875 129.996094 266.660156 129.316406 Z M 277.519531 165.308594 C 276.609375 164.410156 275.65625 163.542969 274.660156 162.660156 C 274.558594 155.605469 273.578125 148.765625 271.714844 142.230469 C 275.367188 145.613281 278.242188 149.257812 280.25 153.117188 C 281.246094 155.777344 282.125 158.484375 282.890625 161.230469 C 283.441406 165.148438 283.714844 169.082031 283.730469 173.042969 C 282.082031 170.398438 280.019531 167.824219 277.519531 165.308594 Z M 273.996094 189.382812 C 273.246094 188.617188 272.4375 187.878906 271.613281 187.15625 C 271.773438 186.546875 271.929688 185.941406 272.0625 185.347656 C 273.722656 178.378906 274.558594 171.554688 274.632812 164.917969 C 275.210938 165.4375 275.773438 165.972656 276.308594 166.523438 C 279.5 169.703125 281.953125 173.015625 283.6875 176.398438 C 283.457031 183.496094 282.371094 190.609375 280.464844 197.609375 C 278.820312 194.789062 276.652344 192.042969 273.996094 189.382812 Z M 276.261719 209.84375 C 274.703125 207.210938 272.667969 204.664062 270.199219 202.179688 C 269.359375 201.355469 268.492188 200.558594 267.585938 199.75 C 269.027344 195.976562 270.285156 192.1875 271.308594 188.382812 C 271.945312 188.976562 272.582031 189.570312 273.203125 190.175781 C 276.105469 193.082031 278.386719 196.089844 280.046875 199.15625 C 279.007812 202.757812 277.738281 206.328125 276.261719 209.84375 Z M 283.296875 213.804688 C 282.328125 216.40625 281.273438 218.894531 280.132812 221.292969 C 279.800781 217.808594 278.746094 214.398438 276.957031 211.070312 C 278.445312 207.628906 279.730469 204.160156 280.796875 200.632812 C 282.515625 204.261719 283.382812 207.992188 283.382812 211.792969 C 283.382812 212.460938 283.355469 213.140625 283.296875 213.804688 Z M 280.234375 223.652344 C 280.753906 222.636719 281.246094 221.597656 281.738281 220.542969 C 281.246094 222.03125 280.742188 223.492188 280.191406 224.964844 C 280.21875 224.519531 280.234375 224.097656 280.234375 223.652344 Z M 235.8125 271.597656 C 236.507812 269.949219 236.867188 268.273438 236.925781 266.535156 C 243.554688 263.082031 250.441406 258.640625 256.984375 253.046875 C 256.796875 255.894531 255.902344 258.714844 254.371094 261.445312 C 248.621094 265.683594 242.269531 269.039062 235.8125 271.597656 Z M 225.921875 282.382812 C 225.832031 282.414062 225.746094 282.457031 225.660156 282.472656 C 227.148438 281.515625 228.519531 280.535156 229.746094 279.476562 C 231.839844 278.855469 233.921875 278.105469 235.941406 277.28125 C 232.691406 279.160156 229.355469 280.867188 225.921875 282.382812 Z M 139.617188 279.433594 C 140.800781 280.476562 142.128906 281.457031 143.574219 282.382812 C 143.546875 282.382812 143.515625 282.371094 143.488281 282.355469 C 140.078125 280.851562 136.730469 279.144531 133.492188 277.25 C 135.488281 278.074219 137.539062 278.8125 139.617188 279.433594 Z M 112.496094 253.046875 C 119.039062 258.628906 125.925781 263.066406 132.554688 266.523438 C 132.597656 268.242188 132.960938 269.933594 133.636719 271.582031 C 127.199219 269.007812 120.84375 265.667969 115.09375 261.433594 C 113.566406 258.699219 112.667969 255.878906 112.496094 253.046875 Z M 89.230469 223.605469 C 89.230469 224.054688 89.257812 224.488281 89.273438 224.953125 C 88.710938 223.449219 88.191406 221.945312 87.699219 220.425781 C 88.191406 221.511719 88.695312 222.582031 89.230469 223.605469 Z M 101.894531 199.734375 C 100.984375 200.542969 100.105469 201.339844 99.28125 202.179688 C 96.796875 204.652344 94.789062 207.210938 93.230469 209.8125 C 91.699219 206.183594 90.398438 202.496094 89.332031 198.765625 C 91.425781 195.019531 94.402344 191.464844 98.125 188.136719 C 99.152344 192.015625 100.421875 195.890625 101.894531 199.734375 Z M 114.199219 177.496094 C 115.007812 181.558594 115.992188 185.652344 117.144531 189.730469 C 111.703125 192.460938 106.878906 195.554688 102.820312 198.953125 C 101.347656 195.078125 100.089844 191.191406 99.078125 187.316406 C 103.28125 183.714844 108.367188 180.433594 114.199219 177.496094 Z M 113.59375 131.644531 C 112.410156 137.113281 111.703125 143.011719 111.570312 149.328125 C 111.542969 150.125 111.558594 150.921875 111.558594 151.714844 C 105.652344 154.664062 100.410156 158.003906 96.003906 161.679688 C 96.191406 154.507812 97.304688 147.582031 99.355469 140.972656 C 103.355469 137.574219 108.148438 134.453125 113.59375 131.644531 Z M 113.925781 130.113281 C 108.625 132.804688 103.945312 135.765625 99.988281 138.949219 C 101.042969 135.898438 102.285156 132.917969 103.730469 130.011719 C 107.371094 126.890625 111.703125 124.027344 116.597656 121.453125 C 115.558594 124.183594 114.648438 127.078125 113.925781 130.113281 Z M 134.085938 122.277344 C 129.941406 123.492188 125.957031 124.863281 122.199219 126.367188 C 119.789062 127.351562 117.476562 128.378906 115.269531 129.449219 C 116.046875 126.367188 116.988281 123.417969 118.097656 120.671875 C 123.53125 117.9375 129.636719 115.566406 136.238281 113.601562 C 135.386719 116.304688 134.648438 119.195312 134.085938 122.277344 Z M 159.429688 108.640625 C 158.984375 111.359375 158.609375 114.207031 158.332031 117.144531 C 150.289062 118.257812 142.550781 119.847656 135.300781 121.914062 C 135.90625 118.804688 136.65625 115.914062 137.566406 113.210938 C 144.382812 111.246094 151.71875 109.710938 159.429688 108.640625 Z M 160.816406 101.933594 C 160.371094 103.695312 159.980469 105.546875 159.617188 107.5 C 152.09375 108.527344 144.832031 110.015625 138 111.953125 C 138.734375 109.898438 139.546875 107.960938 140.453125 106.140625 C 146.824219 104.332031 153.667969 102.914062 160.816406 101.933594 Z M 184.167969 99.199219 C 176.675781 99.214844 169.324219 99.691406 162.289062 100.585938 C 163.402344 96.757812 164.804688 93.53125 166.480469 91.117188 C 172.210938 90.363281 178.132812 89.976562 184.167969 89.945312 Z M 207.203125 100.585938 C 200.15625 99.691406 192.804688 99.214844 185.296875 99.199219 L 185.296875 89.945312 C 191.363281 89.960938 197.28125 90.351562 202.972656 91.074219 C 204.675781 93.503906 206.0625 96.726562 207.203125 100.585938 Z M 209.859375 107.484375 C 209.515625 105.546875 209.125 103.683594 208.664062 101.917969 C 215.824219 102.902344 222.65625 104.316406 229.023438 106.125 C 229.933594 107.949219 230.757812 109.898438 231.496094 111.953125 C 224.648438 110 217.398438 108.511719 209.859375 107.484375 Z M 234.179688 121.871094 C 226.988281 119.832031 219.261719 118.226562 211.160156 117.113281 C 210.871094 114.179688 210.511719 111.34375 210.050781 108.640625 C 217.773438 109.695312 225.113281 111.246094 231.929688 113.195312 C 232.824219 115.898438 233.574219 118.777344 234.179688 121.871094 Z M 254.210938 129.375 C 248.535156 126.628906 242.226562 124.230469 235.394531 122.234375 C 234.816406 119.152344 234.109375 116.289062 233.242188 113.585938 C 239.855469 115.566406 245.949219 117.925781 251.378906 120.644531 C 252.492188 123.390625 253.429688 126.3125 254.210938 129.375 Z M 255.554688 130.027344 C 254.816406 127.003906 253.921875 124.140625 252.882812 121.4375 C 257.777344 123.996094 262.097656 126.859375 265.734375 129.984375 C 267.164062 132.847656 268.421875 135.808594 269.460938 138.832031 C 265.476562 135.636719 260.796875 132.671875 255.554688 130.027344 Z M 257.9375 151.703125 C 257.9375 150.921875 257.9375 150.125 257.921875 149.328125 C 257.777344 142.9375 257.070312 136.953125 255.859375 131.429688 C 261.289062 134.21875 266.082031 137.359375 270.066406 140.769531 C 272.148438 147.449219 273.304688 154.433594 273.492188 161.664062 C 269.070312 158.003906 263.84375 154.664062 257.9375 151.703125 Z M 252.332031 189.730469 C 253.488281 185.695312 254.457031 181.660156 255.25 177.65625 C 261.101562 180.621094 266.167969 183.929688 270.34375 187.546875 C 269.347656 191.347656 268.117188 195.179688 266.675781 198.96875 C 262.601562 195.554688 257.777344 192.476562 252.332031 189.730469 Z M 261.765625 210.1875 C 257.980469 207.023438 253.503906 204.144531 248.449219 201.601562 C 249.777344 198.027344 250.960938 194.441406 252.015625 190.828125 C 257.445312 193.574219 262.226562 196.667969 266.242188 200.082031 C 264.914062 203.480469 263.425781 206.847656 261.765625 210.1875 Z M 270.933594 220.671875 C 269.445312 218.128906 267.496094 215.640625 265.085938 213.210938 C 264.320312 212.445312 263.484375 211.691406 262.644531 210.957031 C 264.320312 207.628906 265.808594 204.261719 267.152344 200.878906 C 267.917969 201.570312 268.683594 202.265625 269.390625 202.972656 C 272.03125 205.632812 274.125 208.351562 275.699219 211.15625 C 274.285156 214.367188 272.710938 217.550781 270.933594 220.671875 Z M 212.144531 274.402344 C 212.054688 273.550781 211.824219 272.695312 211.449219 271.859375 C 219.652344 268.691406 227.320312 264.832031 234.382812 260.320312 C 235.277344 262.113281 235.742188 263.964844 235.785156 265.855469 C 226.917969 270.410156 218.539062 273.160156 212.144531 274.402344 Z M 211.722656 277.773438 C 211.984375 277.0625 212.128906 276.3125 212.171875 275.558594 C 218.539062 274.316406 226.875 271.625 235.753906 267.128906 C 235.625 268.835938 235.148438 270.527344 234.339844 272.160156 C 226.554688 275.097656 218.726562 276.933594 211.722656 277.773438 Z M 205.976562 284.191406 C 206.972656 283.570312 207.867188 282.890625 208.648438 282.183594 C 214.484375 282.570312 220.808594 281.863281 227.046875 280.246094 C 225.34375 281.488281 223.40625 282.660156 221.3125 283.714844 C 216.488281 284.886719 212.605469 284.914062 205.976562 284.191406 Z M 171.011719 287.417969 C 175.101562 288.601562 179.808594 289.28125 184.734375 289.28125 C 187.171875 289.28125 189.527344 289.121094 191.765625 288.832031 C 192.515625 289.570312 193.296875 290.179688 194.089844 290.625 C 191 290.902344 187.882812 291.058594 184.734375 291.058594 C 177.828125 291.058594 171.027344 290.367188 164.398438 289.035156 C 166.710938 288.832031 168.847656 288.296875 171.011719 287.417969 Z M 160.875 282.183594 C 161.65625 282.890625 162.550781 283.570312 163.546875 284.191406 C 156.875 284.914062 152.988281 284.886719 148.136719 283.699219 C 146.042969 282.644531 144.121094 281.488281 142.417969 280.230469 C 148.671875 281.863281 155.027344 282.570312 160.875 282.183594 Z M 157.308594 275.558594 C 157.351562 276.296875 157.496094 277.046875 157.757812 277.773438 C 150.75 276.917969 142.910156 275.097656 135.125 272.148438 C 134.316406 270.511719 133.839844 268.835938 133.726562 267.128906 C 142.59375 271.613281 150.925781 274.316406 157.308594 275.558594 Z M 135.082031 260.289062 C 142.160156 264.832031 149.828125 268.691406 158.03125 271.84375 C 157.640625 272.683594 157.410156 273.535156 157.324219 274.402344 C 150.925781 273.144531 142.5625 270.398438 133.683594 265.84375 C 133.726562 263.933594 134.214844 262.082031 135.082031 260.289062 Z M 97.910156 221.800781 C 96.25 224.921875 95.28125 228.132812 95.023438 231.429688 C 93.359375 228.855469 91.800781 226.195312 90.371094 223.363281 C 90.414062 219.601562 91.351562 215.945312 93.101562 212.429688 C 94.53125 215.609375 96.132812 218.734375 97.910156 221.800781 Z M 106.847656 210.941406 C 105.984375 211.691406 105.160156 212.445312 104.378906 213.210938 C 101.984375 215.625 100.03125 218.113281 98.546875 220.65625 C 96.785156 217.535156 95.195312 214.367188 93.792969 211.15625 C 95.816406 207.527344 98.703125 204.085938 102.328125 200.878906 C 103.671875 204.246094 105.175781 207.617188 106.847656 210.941406 Z M 121.046875 201.585938 C 115.976562 204.128906 111.5 207.007812 107.714844 210.175781 C 106.054688 206.847656 104.566406 203.464844 103.238281 200.082031 C 107.210938 196.726562 112.003906 193.632812 117.476562 190.871094 C 118.53125 194.457031 119.714844 198.042969 121.046875 201.585938 Z M 137.132812 183.28125 C 137.914062 186.9375 138.792969 190.640625 139.777344 194.355469 C 133.335938 196.222656 127.398438 198.476562 122.054688 201.078125 C 120.742188 197.523438 119.558594 193.953125 118.503906 190.367188 C 124.078125 187.648438 130.347656 185.261719 137.132812 183.28125 Z M 134.589844 169.601562 C 135.226562 173.707031 135.976562 177.886719 136.875 182.125 C 130.101562 184.089844 123.816406 186.460938 118.1875 189.222656 C 117.03125 185.132812 116.046875 181.039062 115.238281 176.976562 C 121.046875 174.140625 127.542969 171.65625 134.589844 169.601562 Z M 132.410156 145.46875 C 132.554688 152.699219 133.234375 160.40625 134.417969 168.429688 C 127.386719 170.46875 120.871094 172.925781 115.007812 175.789062 C 113.535156 168.039062 112.757812 160.40625 112.667969 153.074219 C 118.574219 150.152344 125.203125 147.609375 132.410156 145.46875 Z M 132.800781 131.804688 C 132.46875 135.578125 132.339844 139.554688 132.367188 143.675781 C 125.261719 145.757812 118.648438 148.273438 112.683594 151.152344 C 112.683594 150.558594 112.683594 149.953125 112.699219 149.359375 C 112.84375 142.78125 113.59375 136.621094 114.894531 130.980469 C 120.597656 128.160156 126.953125 125.675781 133.855469 123.59375 C 133.40625 126.210938 133.046875 128.929688 132.800781 131.804688 Z M 157.480469 138.414062 C 149.046875 139.554688 141.003906 141.21875 133.492188 143.34375 C 133.464844 139.425781 133.609375 135.59375 133.925781 131.890625 C 134.1875 128.871094 134.578125 125.976562 135.054688 123.261719 C 142.289062 121.132812 150.074219 119.472656 158.21875 118.328125 C 157.65625 124.808594 157.4375 131.691406 157.480469 138.414062 Z M 184.167969 116.476562 L 184.167969 136.621094 C 175.332031 136.648438 166.695312 137.226562 158.40625 138.296875 C 158.390625 131.125 158.652344 124.34375 159.214844 118.183594 C 167.242188 117.113281 175.605469 116.523438 184.167969 116.476562 Z M 184.167969 106.949219 L 184.167969 115.351562 C 175.75 115.378906 167.402344 115.945312 159.328125 117 C 159.632812 114.019531 160.007812 111.15625 160.484375 108.511719 C 168.066406 107.515625 176.011719 106.980469 184.167969 106.949219 Z M 184.167969 105.808594 C 176.140625 105.835938 168.285156 106.355469 160.6875 107.339844 C 161.0625 105.386719 161.480469 103.523438 161.945312 101.789062 C 169.09375 100.847656 176.542969 100.355469 184.167969 100.328125 Z M 185.296875 105.808594 L 185.296875 100.328125 C 192.9375 100.355469 200.386719 100.847656 207.535156 101.773438 C 208.011719 103.507812 208.417969 105.375 208.792969 107.339844 C 201.195312 106.355469 193.324219 105.835938 185.296875 105.808594 Z M 185.296875 115.351562 L 185.296875 106.949219 C 193.46875 106.964844 201.414062 107.5 209.007812 108.496094 C 209.472656 111.15625 209.847656 113.992188 210.148438 116.96875 C 202.191406 115.929688 193.84375 115.378906 185.296875 115.351562 Z M 211.074219 138.296875 C 202.800781 137.214844 194.148438 136.632812 185.296875 136.621094 L 185.296875 116.476562 C 193.902344 116.507812 202.265625 117.085938 210.265625 118.125 C 210.84375 124.300781 211.101562 131.109375 211.074219 138.296875 Z M 235.566406 131.890625 C 235.886719 135.59375 236.015625 139.425781 235.984375 143.34375 C 228.492188 141.21875 220.445312 139.554688 212.011719 138.414062 C 212.042969 131.660156 211.839844 124.761719 211.261719 118.257812 C 219.4375 119.386719 227.191406 121.019531 234.398438 123.085938 C 234.902344 125.878906 235.292969 128.8125 235.566406 131.890625 Z M 237.113281 143.675781 C 237.15625 139.554688 237.011719 135.578125 236.695312 131.804688 C 236.433594 128.882812 236.074219 126.109375 235.609375 123.433594 C 242.511719 125.488281 248.867188 127.945312 254.558594 130.765625 C 255.871094 136.476562 256.636719 142.691406 256.796875 149.359375 C 256.8125 149.953125 256.796875 150.558594 256.8125 151.152344 C 250.847656 148.261719 244.230469 145.757812 237.113281 143.675781 Z M 235.046875 168.53125 C 236.261719 160.449219 236.9375 152.699219 237.082031 145.410156 C 244.246094 147.535156 250.875 150.097656 256.8125 153.046875 C 256.738281 160.421875 255.929688 168.128906 254.457031 175.933594 C 248.609375 173.058594 242.082031 170.585938 235.046875 168.53125 Z M 232.605469 182.136719 C 233.503906 177.929688 234.238281 173.796875 234.875 169.730469 C 235.726562 169.976562 236.59375 170.210938 237.445312 170.46875 C 243.539062 172.390625 249.140625 174.621094 254.210938 177.121094 C 253.417969 181.140625 252.449219 185.1875 251.308594 189.222656 C 245.660156 186.476562 239.394531 184.089844 232.605469 182.136719 Z M 229.71875 194.355469 C 230.699219 190.625 231.582031 186.910156 232.359375 183.238281 C 239.132812 185.1875 245.386719 187.574219 250.992188 190.320312 C 249.9375 193.921875 248.753906 197.523438 247.4375 201.09375 C 242.09375 198.492188 236.144531 196.222656 229.71875 194.355469 Z M 243.597656 210.578125 C 241.316406 215.726562 238.800781 220.699219 236.058594 225.488281 C 231.726562 223.363281 226.902344 221.523438 221.6875 220.007812 C 223.234375 215.828125 224.707031 211.519531 226.078125 207.125 C 227.292969 203.207031 228.417969 199.316406 229.445312 195.46875 C 235.828125 197.304688 241.734375 199.546875 247.046875 202.148438 C 245.964844 204.984375 244.839844 207.804688 243.597656 210.578125 Z M 247.582031 232.804688 C 244.578125 230.300781 241.039062 228.015625 237.070312 225.992188 C 239.8125 221.191406 242.339844 216.203125 244.636719 211.042969 C 245.863281 208.265625 247.003906 205.476562 248.058594 202.65625 C 253.070312 205.199219 257.503906 208.0625 261.230469 211.214844 C 257.460938 218.632812 252.882812 225.878906 247.582031 232.804688 Z M 250.398438 235.363281 C 249.777344 234.742188 249.113281 234.132812 248.433594 233.539062 C 253.734375 226.628906 258.328125 219.398438 262.109375 211.980469 C 262.863281 212.660156 263.597656 213.328125 264.277344 214.019531 C 266.804688 216.550781 268.796875 219.140625 270.269531 221.800781 C 269.878906 222.480469 269.492188 223.160156 269.085938 223.824219 C 265.113281 230.257812 260.492188 236.230469 255.308594 241.695312 C 254.066406 239.511719 252.433594 237.414062 250.398438 235.363281 Z M 231.394531 254.332031 C 231.003906 253.957031 230.585938 253.582031 230.167969 253.21875 C 236.363281 247.710938 242.226562 241.480469 247.523438 234.742188 C 247.597656 234.640625 247.667969 234.523438 247.742188 234.4375 C 248.390625 235 249.011719 235.578125 249.589844 236.15625 C 251.65625 238.226562 253.273438 240.367188 254.484375 242.550781 C 248.636719 248.578125 242.035156 253.972656 234.800781 258.683594 C 233.933594 257.195312 232.792969 255.75 231.394531 254.332031 Z M 209.167969 268.632812 C 209.082031 268.546875 209.007812 268.488281 208.921875 268.417969 C 215.867188 264.613281 222.757812 259.699219 229.3125 253.972656 C 229.761719 254.347656 230.195312 254.738281 230.597656 255.144531 C 231.941406 256.503906 233.027344 257.890625 233.863281 259.308594 C 226.785156 263.832031 219.117188 267.695312 210.914062 270.847656 C 210.453125 270.078125 209.875 269.34375 209.167969 268.632812 Z M 140.136719 253.941406 C 146.707031 259.683594 153.609375 264.597656 160.558594 268.402344 C 160.472656 268.488281 160.382812 268.546875 160.3125 268.632812 C 159.605469 269.34375 159.027344 270.078125 158.550781 270.847656 C 150.347656 267.695312 142.691406 263.820312 135.617188 259.308594 C 136.714844 257.414062 138.246094 255.621094 140.136719 253.941406 Z M 121.722656 234.421875 C 121.8125 234.523438 121.882812 234.640625 121.96875 234.742188 C 127.253906 241.480469 133.117188 247.710938 139.3125 253.207031 C 138.894531 253.582031 138.476562 253.957031 138.070312 254.332031 C 136.671875 255.734375 135.53125 257.195312 134.664062 258.683594 C 127.441406 253.972656 120.84375 248.5625 114.996094 242.550781 C 116.570312 239.6875 118.851562 236.953125 121.722656 234.421875 Z M 121.046875 233.527344 C 120.367188 234.121094 119.703125 234.742188 119.082031 235.363281 C 117.03125 237.402344 115.414062 239.511719 114.171875 241.667969 C 108.972656 236.214844 104.367188 230.257812 100.410156 223.824219 C 99.988281 223.160156 99.613281 222.480469 99.210938 221.800781 C 101.128906 218.328125 103.890625 215.046875 107.371094 211.980469 C 111.167969 219.386719 115.746094 226.613281 121.046875 233.527344 Z M 124.859375 211.042969 C 127.140625 216.191406 129.667969 221.179688 132.410156 225.980469 C 128.4375 228.015625 124.902344 230.300781 121.910156 232.789062 C 116.613281 225.878906 112.019531 218.632812 108.25 211.214844 C 111.945312 208.105469 116.378906 205.242188 121.433594 202.699219 C 122.503906 205.503906 123.644531 208.28125 124.859375 211.042969 Z M 143.414062 207.125 C 144.789062 211.519531 146.261719 215.828125 147.792969 220.007812 C 142.578125 221.511719 137.753906 223.363281 133.421875 225.488281 C 130.691406 220.699219 128.164062 215.726562 125.882812 210.578125 C 124.65625 207.816406 123.53125 205.011719 122.460938 202.179688 C 127.730469 199.621094 133.636719 197.363281 140.066406 195.511719 C 141.089844 199.34375 142.1875 203.234375 143.414062 207.125 Z M 161.308594 191.074219 C 162.449219 199.820312 163.777344 208.351562 165.25 216.347656 C 159.546875 217.128906 154.101562 218.242188 149.003906 219.660156 C 146.128906 211.910156 143.488281 203.652344 141.234375 195.179688 C 147.488281 193.417969 154.21875 192.042969 161.308594 191.074219 Z M 159.835938 178.550781 C 160.226562 182.355469 160.671875 186.171875 161.148438 189.929688 C 154.058594 190.886719 147.269531 192.257812 140.929688 194.039062 C 139.964844 190.378906 139.082031 186.679688 138.289062 182.960938 C 144.988281 181.082031 152.226562 179.578125 159.835938 178.550781 Z M 158.566406 164.585938 C 158.765625 167.230469 158.96875 169.660156 159.171875 171.800781 C 159.328125 173.664062 159.519531 175.542969 159.71875 177.410156 C 152.09375 178.421875 144.816406 179.910156 138.027344 181.804688 C 137.148438 177.625 136.367188 173.449219 135.734375 169.269531 C 142.835938 167.257812 150.507812 165.683594 158.566406 164.585938 Z M 158.492188 163.457031 C 150.433594 164.527344 142.738281 166.089844 135.558594 168.113281 C 134.375 160.304688 133.652344 152.570312 133.523438 145.136719 C 140.960938 142.996094 149.003906 141.304688 157.496094 140.148438 C 157.566406 148.550781 158 156.675781 158.492188 163.457031 Z M 184.167969 161.734375 C 175.679688 161.75 167.375 162.300781 159.402344 163.328125 C 158.824219 155.332031 158.476562 147.480469 158.421875 140.019531 C 166.636719 138.917969 175.273438 138.355469 184.167969 138.328125 Z M 210.078125 163.371094 C 202.121094 162.328125 193.800781 161.765625 185.296875 161.734375 L 185.296875 138.328125 C 194.148438 138.339844 202.800781 138.917969 211.074219 140.003906 C 211.015625 147.480469 210.667969 155.34375 210.078125 163.371094 Z M 211.003906 163.484375 C 211.492188 156.691406 211.910156 148.5625 212 140.121094 C 220.433594 141.261719 228.476562 142.9375 235.972656 145.09375 C 235.828125 152.554688 235.105469 160.347656 233.921875 168.199219 C 226.757812 166.160156 219.058594 164.570312 211.003906 163.484375 Z M 209.773438 177.410156 C 209.960938 175.542969 210.148438 173.664062 210.324219 171.800781 C 210.511719 169.675781 210.714844 167.273438 210.914062 164.640625 C 218.871094 165.726562 226.542969 167.332031 233.746094 169.398438 C 233.097656 173.535156 232.332031 177.671875 231.453125 181.804688 C 224.664062 179.910156 217.386719 178.421875 209.773438 177.410156 Z M 208.332031 189.929688 C 208.808594 186.15625 209.253906 182.355469 209.660156 178.523438 C 217.226562 179.550781 224.476562 181.011719 231.21875 182.90625 C 230.410156 186.648438 229.53125 190.367188 228.5625 194.039062 C 222.207031 192.257812 215.4375 190.886719 208.332031 189.929688 Z M 204.230469 216.347656 C 205.703125 208.339844 207.046875 199.808594 208.1875 191.058594 C 215.234375 192.015625 221.976562 193.371094 228.273438 195.136719 C 226.007812 203.625 223.347656 211.910156 220.488281 219.675781 C 215.390625 218.242188 209.933594 217.128906 204.230469 216.347656 Z M 210.324219 243.230469 C 206.726562 242.230469 202.886719 241.421875 198.871094 240.855469 C 200.691406 233.972656 202.4375 226.035156 204.042969 217.460938 C 209.671875 218.226562 215.058594 219.328125 220.101562 220.730469 C 217.023438 228.972656 213.6875 236.589844 210.324219 243.230469 Z M 221.054688 247.261719 C 218.152344 245.84375 214.960938 244.617188 211.507812 243.574219 C 214.914062 236.867188 218.238281 229.246094 221.300781 221.0625 C 226.453125 222.550781 231.234375 224.375 235.507812 226.46875 C 231.207031 233.902344 226.351562 240.855469 221.054688 247.261719 Z M 222.078125 247.78125 C 227.363281 241.378906 232.214844 234.410156 236.519531 226.976562 C 240.449219 228.972656 243.929688 231.242188 246.890625 233.699219 C 246.800781 233.816406 246.714844 233.917969 246.628906 234.03125 C 241.34375 240.769531 235.480469 246.988281 229.3125 252.46875 C 227.234375 250.746094 224.808594 249.171875 222.078125 247.78125 Z M 210.988281 244.601562 C 214.351562 245.601562 217.484375 246.769531 220.300781 248.128906 C 215.148438 254.261719 209.558594 259.871094 203.609375 264.832031 C 202.25 264.179688 200.761719 263.585938 199.175781 263.09375 C 203.03125 258.554688 207.058594 252.191406 210.988281 244.601562 Z M 198.582031 241.96875 C 202.511719 242.503906 206.28125 243.285156 209.804688 244.269531 C 205.804688 252.035156 201.757812 258.382812 197.988281 262.75 C 196.011719 262.199219 193.902344 261.765625 191.707031 261.476562 C 193.976562 257.09375 196.316406 250.34375 198.582031 241.96875 Z M 185.296875 241.046875 C 189.5 241.058594 193.601562 241.335938 197.542969 241.824219 C 195.246094 250.210938 192.847656 256.964844 190.496094 261.332031 C 188.820312 261.144531 187.074219 261.042969 185.296875 261.027344 Z M 178.984375 261.332031 C 176.632812 256.964844 174.234375 250.210938 171.953125 241.824219 C 175.851562 241.320312 179.953125 241.058594 184.167969 241.03125 L 184.167969 261.027344 C 182.40625 261.042969 180.660156 261.144531 178.984375 261.332031 Z M 171.503906 262.75 C 167.734375 258.382812 163.691406 252.035156 159.691406 244.269531 C 163.199219 243.300781 166.957031 242.519531 170.914062 241.96875 C 173.164062 250.355469 175.503906 257.09375 177.785156 261.476562 C 175.578125 261.75 173.46875 262.183594 171.503906 262.75 Z M 165.886719 264.832031 C 159.9375 259.871094 154.347656 254.261719 149.175781 248.144531 C 152.007812 246.800781 155.128906 245.613281 158.507812 244.601562 C 162.433594 252.191406 166.464844 258.554688 170.304688 263.082031 C 168.71875 263.585938 167.230469 264.164062 165.886719 264.832031 Z M 147.402344 247.769531 C 144.6875 249.171875 142.246094 250.746094 140.167969 252.453125 C 134 246.972656 128.136719 240.769531 122.863281 234.03125 C 122.765625 233.917969 122.675781 233.800781 122.589844 233.683594 C 125.523438 231.257812 129.015625 229.015625 132.972656 227.003906 C 137.277344 234.421875 142.117188 241.378906 147.402344 247.769531 Z M 157.972656 243.574219 C 154.535156 244.601562 151.328125 245.832031 148.441406 247.25 C 143.140625 240.855469 138.304688 233.917969 134 226.5 C 138.246094 224.417969 143.027344 222.609375 148.195312 221.105469 C 151.257812 229.261719 154.578125 236.882812 157.972656 243.574219 Z M 170.609375 240.855469 C 166.59375 241.421875 162.765625 242.230469 159.171875 243.230469 C 155.804688 236.589844 152.484375 228.972656 149.410156 220.746094 C 154.417969 219.355469 159.792969 218.257812 165.453125 217.476562 C 167.054688 226.035156 168.804688 233.972656 170.609375 240.855469 Z M 184.167969 216.191406 L 184.167969 239.902344 C 179.867188 239.933594 175.679688 240.222656 171.648438 240.726562 C 169.816406 233.84375 168.039062 225.90625 166.421875 217.347656 C 172.097656 216.609375 178.046875 216.21875 184.167969 216.191406 Z M 184.167969 189.511719 L 184.167969 215.0625 C 178.003906 215.078125 171.980469 215.480469 166.21875 216.21875 C 164.714844 208.207031 163.375 199.664062 162.234375 190.945312 C 169.25 190.03125 176.601562 189.542969 184.167969 189.511719 Z M 184.167969 176.890625 L 184.167969 188.382812 C 176.585938 188.398438 169.195312 188.890625 162.089844 189.800781 C 161.597656 186.042969 161.148438 182.238281 160.746094 178.40625 C 168.242188 177.453125 176.082031 176.917969 184.167969 176.890625 Z M 184.167969 175.761719 C 176.097656 175.777344 168.195312 176.296875 160.628906 177.28125 C 160.195312 173 159.804688 168.707031 159.488281 164.46875 C 167.375 163.441406 175.648438 162.894531 184.167969 162.863281 Z M 185.296875 175.761719 L 185.296875 162.878906 C 193.699219 162.90625 201.992188 163.484375 209.992188 164.527344 C 209.6875 168.75 209.296875 173.015625 208.851562 177.28125 C 201.28125 176.296875 193.382812 175.777344 185.296875 175.761719 Z M 185.296875 188.382812 L 185.296875 176.890625 C 193.355469 176.917969 201.210938 177.425781 208.75 178.394531 C 208.34375 182.226562 207.898438 186.042969 207.40625 189.816406 C 200.300781 188.890625 192.890625 188.398438 185.296875 188.382812 Z M 185.296875 215.0625 L 185.296875 189.511719 C 192.835938 189.527344 200.199219 190.019531 207.261719 190.929688 C 206.121094 199.664062 204.761719 208.207031 203.277344 216.234375 C 197.5 215.480469 191.460938 215.078125 185.296875 215.0625 Z M 185.296875 216.191406 C 191.40625 216.21875 197.355469 216.59375 203.074219 217.332031 C 201.457031 225.90625 199.679688 233.84375 197.832031 240.742188 C 193.800781 240.222656 189.597656 239.933594 185.296875 239.902344 Z M 161.4375 267.605469 C 154.507812 263.832031 147.574219 258.945312 141.003906 253.191406 C 143.027344 251.558594 145.421875 250.039062 148.136719 248.664062 C 153.292969 254.796875 158.867188 260.390625 164.789062 265.394531 C 163.546875 266.058594 162.421875 266.796875 161.4375 267.605469 Z M 204.691406 265.394531 C 210.625 260.40625 216.199219 254.796875 221.34375 248.664062 C 224.027344 250.039062 226.410156 251.558594 228.449219 253.234375 C 221.875 258.960938 214.972656 263.847656 208.042969 267.621094 C 207.058594 266.8125 205.949219 266.074219 204.691406 265.394531 Z M 196.503906 290.367188 C 195.363281 290.105469 194.265625 289.511719 193.210938 288.617188 C 195.074219 288.3125 196.835938 287.90625 198.496094 287.429688 C 200.660156 288.296875 202.785156 288.832031 205.066406 289.035156 C 202.25 289.597656 199.375 290.03125 196.503906 290.367188 Z M 207.953125 280.460938 C 203.652344 284.785156 194.523438 287.574219 184.734375 287.574219 C 174.941406 287.574219 165.828125 284.785156 161.511719 280.460938 C 159.835938 278.785156 158.984375 276.992188 158.984375 275.15625 C 158.984375 268.285156 170.535156 262.707031 184.734375 262.707031 C 194.523438 262.707031 203.652344 265.511719 207.953125 269.832031 C 209.644531 271.511719 210.496094 273.304688 210.496094 275.15625 C 210.496094 276.992188 209.644531 278.785156 207.953125 280.460938 Z M 96.0625 233.0625 C 96.121094 229.59375 97 226.222656 98.601562 222.972656 C 98.878906 223.460938 99.152344 223.941406 99.457031 224.429688 C 103.511719 231.023438 108.265625 237.140625 113.609375 242.738281 C 112.324219 245.28125 111.585938 247.898438 111.398438 250.574219 C 105.867188 245.613281 100.625 239.816406 96.0625 233.0625 Z M 112.46875 251.527344 C 112.539062 248.796875 113.21875 246.148438 114.445312 243.605469 C 120.324219 249.589844 126.910156 254.984375 134.128906 259.683594 C 133.21875 261.503906 132.714844 263.371094 132.585938 265.277344 C 125.914062 261.75 119.007812 257.226562 112.46875 251.527344 Z M 138.878906 277.222656 C 137.726562 276.078125 136.785156 274.894531 136.019531 273.695312 C 143.71875 276.484375 151.429688 278.207031 158.304688 278.984375 C 158.695312 279.722656 159.1875 280.417969 159.792969 281.113281 C 153.554688 281.386719 146.765625 280.417969 140.195312 278.453125 C 139.746094 278.046875 139.285156 277.640625 138.878906 277.222656 Z M 155.488281 286.808594 C 154.390625 286.433594 153.308594 286.027344 152.269531 285.609375 C 155.894531 286.011719 159.632812 285.78125 165.238281 285.132812 C 166.480469 285.78125 167.820312 286.359375 169.28125 286.851562 C 166.203125 287.894531 163.128906 288.210938 159.375 287.863281 C 159.359375 287.863281 159.328125 287.863281 159.328125 287.863281 C 158.042969 287.546875 156.757812 287.183594 155.488281 286.808594 Z M 213.976562 286.808594 C 212.707031 287.183594 211.433594 287.53125 210.148438 287.863281 C 210.136719 287.863281 210.136719 287.863281 210.121094 287.863281 C 206.367188 288.210938 203.320312 287.894531 200.257812 286.867188 C 201.714844 286.359375 203.074219 285.78125 204.300781 285.144531 C 209.859375 285.78125 213.585938 286.011719 217.199219 285.609375 C 216.15625 286.027344 215.074219 286.433594 213.976562 286.808594 Z M 229.269531 278.453125 C 222.699219 280.417969 215.925781 281.386719 209.714844 281.113281 C 210.308594 280.417969 210.800781 279.722656 211.203125 278.984375 C 218.050781 278.207031 225.761719 276.5 233.457031 273.707031 C 232.679688 274.894531 231.738281 276.078125 230.597656 277.222656 C 230.179688 277.640625 229.71875 278.046875 229.269531 278.453125 Z M 236.882812 265.292969 C 236.765625 263.371094 236.246094 261.519531 235.335938 259.683594 C 242.570312 254.984375 249.15625 249.605469 255.035156 243.605469 C 256.289062 246.179688 256.941406 248.839844 257 251.542969 C 250.457031 257.226562 243.554688 261.765625 236.882812 265.292969 Z M 258.082031 250.589844 C 257.894531 247.914062 257.15625 245.296875 255.859375 242.75 C 261.230469 237.140625 265.980469 231.023438 270.039062 224.429688 C 270.328125 223.941406 270.601562 223.460938 270.890625 222.972656 C 272.507812 226.253906 273.359375 229.636719 273.402344 233.09375 C 268.839844 239.832031 263.613281 245.628906 258.082031 250.589844 Z M 274.457031 231.457031 C 274.183594 228.160156 273.214844 224.953125 271.585938 221.8125 C 273.347656 218.734375 274.964844 215.609375 276.378906 212.429688 C 278.15625 216 279.066406 219.644531 279.109375 223.390625 C 277.664062 226.210938 276.105469 228.898438 274.457031 231.457031 Z M 270.660156 186.300781 C 266.386719 182.671875 261.273438 179.375 255.511719 176.457031 C 257 168.675781 257.820312 160.984375 257.921875 153.59375 C 263.914062 156.644531 269.160156 160.117188 273.519531 163.917969 C 273.519531 170.789062 272.683594 177.859375 270.964844 185.085938 C 270.875 185.492188 270.761719 185.898438 270.660156 186.300781 Z M 220.433594 94.601562 C 223.507812 97.363281 226.121094 100.761719 228.304688 104.765625 C 222.035156 103.03125 215.335938 101.6875 208.34375 100.746094 C 207.320312 97.058594 206.035156 93.835938 204.445312 91.277344 C 210.035156 92.058594 215.390625 93.171875 220.433594 94.601562 Z M 149.003906 94.644531 C 154.042969 93.214844 159.429688 92.085938 165.035156 91.289062 C 163.445312 93.851562 162.175781 97.074219 161.148438 100.746094 C 154.160156 101.699219 147.460938 103.046875 141.191406 104.765625 C 143.34375 100.804688 145.941406 97.40625 149.003906 94.644531 Z M 98.515625 185.085938 C 96.8125 177.859375 95.976562 170.773438 95.960938 163.90625 C 100.277344 160.160156 105.519531 156.703125 111.558594 153.640625 C 111.671875 160.96875 112.480469 168.574219 113.953125 176.296875 C 108.179688 179.203125 103.066406 182.46875 98.777344 186.085938 C 98.691406 185.753906 98.601562 185.421875 98.515625 185.085938 Z M 85.777344 211.792969 C 85.777344 207.816406 86.746094 203.941406 88.582031 200.242188 C 89.664062 203.886719 90.992188 207.5 92.523438 211.054688 C 90.734375 214.367188 89.679688 217.78125 89.347656 221.25 C 88.046875 218.53125 86.863281 215.699219 85.808594 212.734375 C 85.792969 212.429688 85.777344 212.113281 85.777344 211.792969 Z M 91.121094 229.507812 C 90.820312 228.351562 90.617188 227.191406 90.5 226.023438 C 91.886719 228.582031 93.359375 231.039062 94.921875 233.367188 C 94.921875 233.382812 94.921875 233.394531 94.921875 233.410156 C 94.921875 235.074219 95.109375 236.722656 95.46875 238.355469 C 93.867188 235.476562 92.421875 232.527344 91.121094 229.507812 Z M 102.761719 249.5625 C 102.691406 249.488281 102.617188 249.429688 102.53125 249.402344 C 101 247.320312 99.570312 245.179688 98.214844 242.996094 C 97.027344 240.410156 96.320312 237.761719 96.121094 235.089844 C 100.683594 241.59375 105.867188 247.203125 111.324219 252.003906 C 111.339844 254.652344 111.917969 257.269531 113.03125 259.8125 C 109.246094 256.804688 105.75 253.40625 102.761719 249.5625 Z M 120.554688 268.300781 C 119.066406 266.882812 117.765625 265.421875 116.683594 263.917969 C 122.242188 267.695312 128.25 270.714844 134.332031 273.058594 C 135.167969 274.632812 136.296875 276.152344 137.726562 277.640625 C 133.074219 276.035156 128.613281 273.941406 124.582031 271.425781 C 123.226562 270.410156 121.882812 269.386719 120.554688 268.300781 Z M 248.925781 268.300781 C 247.566406 269.398438 246.183594 270.46875 244.78125 271.496094 C 240.765625 274.011719 236.304688 276.078125 231.683594 277.671875 C 233.097656 276.210938 234.238281 274.664062 235.105469 273.074219 C 241.183594 270.746094 247.191406 267.722656 252.753906 263.949219 C 251.683594 265.4375 250.398438 266.898438 248.925781 268.300781 Z M 266.933594 249.402344 C 266.863281 249.429688 266.789062 249.488281 266.730469 249.5625 C 263.726562 253.421875 260.21875 256.820312 256.433594 259.84375 C 257.546875 257.28125 258.125 254.664062 258.140625 252.019531 C 263.597656 247.21875 268.78125 241.609375 273.347656 235.132812 C 273.144531 237.804688 272.421875 240.4375 271.253906 243.027344 C 269.894531 245.195312 268.464844 247.320312 266.933594 249.402344 Z M 273.996094 238.355469 C 274.355469 236.734375 274.546875 235.074219 274.546875 233.410156 C 276.105469 231.066406 277.578125 228.640625 278.964844 226.066406 C 278.847656 227.222656 278.644531 228.363281 278.359375 229.519531 C 277.042969 232.527344 275.597656 235.492188 273.996094 238.355469 Z M 277.835938 147.234375 C 275.945312 144.773438 273.664062 142.417969 271.078125 140.164062 C 270.183594 137.371094 269.128906 134.625 267.917969 131.949219 C 269.78125 133.742188 271.441406 135.59375 272.855469 137.53125 C 274.703125 140.667969 276.351562 143.921875 277.835938 147.234375 Z M 246.585938 111.433594 C 241.472656 109.015625 235.839844 106.921875 229.804688 105.1875 C 227.839844 101.367188 225.5 98.070312 222.773438 95.265625 C 226.785156 96.511719 230.585938 97.96875 234.109375 99.605469 C 235.480469 100.371094 236.839844 101.152344 238.179688 101.992188 C 241.359375 104.59375 244.175781 107.757812 246.585938 111.433594 Z M 200.171875 88.023438 C 200.820312 88.542969 201.425781 89.136719 202.019531 89.828125 C 196.605469 89.179688 191.015625 88.832031 185.296875 88.804688 L 185.296875 86.878906 C 190.320312 86.894531 195.289062 87.285156 200.171875 88.023438 Z M 184.167969 86.867188 L 184.167969 88.804688 C 178.480469 88.832031 172.875 89.195312 167.460938 89.84375 C 168.039062 89.152344 168.660156 88.542969 169.308594 88.023438 C 174.160156 87.285156 179.128906 86.894531 184.167969 86.867188 Z M 96.695312 137.472656 C 98.097656 135.578125 99.714844 133.742188 101.550781 131.992188 C 100.320312 134.695312 99.265625 137.472656 98.371094 140.308594 C 95.742188 142.578125 93.476562 144.976562 91.585938 147.4375 C 93.117188 144.007812 94.820312 140.683594 96.695312 137.472656 Z M 82.789062 187.023438 C 82.976562 184.175781 83.640625 181.386719 84.769531 178.667969 C 85.144531 185.363281 86.285156 192.042969 88.117188 198.621094 C 86.242188 202.078125 85.128906 205.632812 84.78125 209.292969 C 83.453125 202.671875 82.761719 195.859375 82.761719 188.960938 C 82.761719 188.3125 82.773438 187.660156 82.789062 187.023438 Z M 81.027344 188.71875 C 81.027344 188.789062 81.042969 188.847656 81.070312 188.917969 C 81.070312 188.933594 81.054688 188.949219 81.054688 188.960938 C 81.054688 216.679688 91.84375 242.75 111.425781 262.359375 C 131.011719 281.964844 157.035156 292.75 184.734375 292.75 C 241.863281 292.75 288.351562 246.234375 288.410156 189.050781 C 288.453125 188.949219 288.480469 188.832031 288.480469 188.71875 C 288.480469 187.804688 288.421875 186.910156 288.335938 186.011719 C 287.601562 159.394531 276.929688 134.464844 258.039062 115.566406 C 238.457031 95.960938 212.433594 85.160156 184.734375 85.160156 C 157.046875 85.160156 131.011719 95.960938 111.425781 115.566406 C 92.421875 134.597656 81.734375 159.699219 81.128906 186.519531 C 81.054688 187.257812 81.027344 187.980469 81.027344 188.71875 " fill-opacity="1" fill-rule="nonzero"/><g clip-path="url(#6c96e1db30)"><path fill="#ffffff" d="M 294.488281 209.175781 C 292.914062 209.308594 291.902344 210.363281 292.222656 211.519531 C 292.539062 212.691406 294.070312 213.527344 295.644531 213.398438 C 306.648438 212.472656 315.488281 210.8125 321.566406 208.441406 C 328.023438 205.921875 331.558594 202.570312 331.558594 198.390625 C 331.558594 189.714844 315.039062 179.652344 288.351562 170.410156 C 262.585938 161.488281 227.046875 153.046875 187.835938 147.21875 C 168.023438 144.285156 149.191406 142.289062 132.078125 141.1875 C 107.296875 139.597656 86.066406 139.917969 70.746094 142 C 54.484375 144.210938 44.5625 148.5625 43.539062 154.953125 C 43.480469 155.332031 43.449219 155.707031 43.449219 156.066406 C 43.449219 159.667969 46.136719 163.429688 51.105469 167.230469 C 55.886719 170.859375 62.847656 174.605469 71.597656 178.304688 C 73.042969 178.914062 74.789062 178.609375 75.496094 177.597656 C 76.203125 176.601562 75.613281 175.300781 74.167969 174.675781 C 65.949219 171.207031 59.464844 167.738281 55.148438 164.441406 C 51.335938 161.535156 49.269531 158.828125 49.269531 156.445312 C 49.269531 156.210938 49.300781 155.996094 49.328125 155.808594 C 50.050781 151.3125 58.414062 148.058594 72.261719 146.179688 C 87.050781 144.152344 107.757812 143.878906 132.078125 145.425781 C 149.003906 146.511719 167.632812 148.492188 187.171875 151.398438 C 225.90625 157.136719 260.941406 165.453125 286.257812 174.214844 C 310.632812 182.660156 325.726562 191.261719 325.726562 198.015625 C 325.726562 200.601562 323.167969 202.828125 318.492188 204.652344 C 312.988281 206.792969 304.800781 208.308594 294.488281 209.175781 " fill-opacity="1" fill-rule="nonzero"/></g><g clip-path="url(#6d170bb8c3)"><path fill="#ffffff" d="M 291.789062 82.789062 L 291.933594 82.789062 C 292.914062 95.730469 303.226562 106.066406 316.152344 107.035156 L 316.152344 107.195312 C 303.226562 108.164062 292.914062 118.503906 291.933594 131.445312 L 291.789062 131.445312 C 290.804688 118.503906 280.496094 108.164062 267.570312 107.195312 L 267.570312 107.035156 C 280.496094 106.066406 290.804688 95.730469 291.789062 82.789062 " fill-opacity="1" fill-rule="evenodd"/></g><path fill="#ffffff" d="M 316.542969 127.4375 L 316.613281 127.4375 C 317.019531 132.949219 321.40625 137.34375 326.894531 137.75 L 326.894531 137.820312 C 321.40625 138.226562 317.019531 142.621094 316.613281 148.117188 L 316.542969 148.117188 C 316.136719 142.621094 311.746094 138.226562 306.246094 137.820312 L 306.246094 137.75 C 311.746094 137.34375 316.136719 132.949219 316.542969 127.4375 " fill-opacity="1" fill-rule="evenodd"/><path stroke-linecap="butt" transform="matrix(0.743121, -0.101346, 0.101346, 0.743121, 61.840774, 155.68162)" fill="none" stroke-linejoin="miter" d="M 2.800721 55.000127 L 16.798779 55.00104 C 17.576618 55.00199 18.19402 54.329248 18.19497 53.551409 L 18.195636 40.441674 C 18.191425 39.663131 18.811407 39.048563 19.600271 39.04576 L 27.994414 39.049873 C 28.772957 39.045663 29.388229 39.660484 29.386575 40.443484 L 29.389193 53.606232 C 29.388243 54.384071 30.003515 54.998892 30.796836 55.001954 L 44.795597 54.997706 C 45.573436 54.998656 46.190134 54.331075 46.191084 53.553236 L 46.190822 39.717971 C 46.189699 36.411451 43.784908 34.001896 40.473227 34.002315 L 39.984145 34.00395 C 39.19012 34.006049 38.575552 33.386067 38.576502 32.608228 C 38.574403 31.814203 39.189224 31.198932 39.982545 31.201993 L 40.476787 31.201062 C 43.783308 31.199939 46.187702 28.794443 46.186579 25.487923 L 46.189486 19.338161 C 46.186984 14.076017 42.335847 10.20764 37.069246 10.204277 L 2.801862 10.203998 C 2.007837 10.206098 1.393016 10.821369 1.395115 11.615394 L 1.393079 53.604405 C 1.392129 54.382244 2.006697 55.002226 2.800721 55.000127 Z M 19.600229 26.172473 C 18.806908 26.169412 18.191636 25.554591 18.194698 24.76127 C 18.195648 23.983431 18.810469 23.368159 19.60379 23.37122 L 27.993476 23.369469 C 28.776476 23.371123 29.386587 23.98524 29.390798 24.763783 C 29.387736 25.557104 28.772915 26.172376 27.995076 26.171426 Z M 19.600229 26.172473 " stroke="#231f20" stroke-width="11.269819" stroke-opacity="1" stroke-miterlimit="4"/><path stroke-linecap="butt" transform="matrix(0.746023, -0.0771373, 0.0771373, 0.746023, 98.039177, 150.930811)" fill="none" stroke-linejoin="miter" d="M 2.858184 55.000811 L 16.801735 55.00262 C 17.577051 54.999008 18.195309 54.387478 18.192233 53.606981 L 18.193543 11.613584 C 18.191538 10.822726 17.522484 10.203756 16.747168 10.207367 L 2.803617 10.205559 C 2.007578 10.207027 1.394501 10.819093 1.39597 11.615133 L 1.395196 53.603349 C 1.393091 54.38331 2.078223 54.998706 2.858184 55.000811 Z M 2.858184 55.000811 " stroke="#231f20" stroke-width="11.269819" stroke-opacity="1" stroke-miterlimit="4"/><path stroke-linecap="butt" transform="matrix(0.748411, -0.0487926, 0.0487926, 0.748411, 113.58941, 149.060849)" fill="none" stroke-linejoin="miter" d="M 2.855432 55.002403 L 16.801914 54.998249 C 17.579361 55.00196 18.193757 54.384372 18.192271 53.606586 L 18.193859 28.684101 C 18.192373 27.906315 18.807447 27.278333 19.600825 27.277863 C 20.383809 27.276716 20.995182 27.906365 20.996669 28.684151 L 20.998359 53.716457 C 20.998037 54.441931 21.666127 55.002207 22.391602 55.00253 L 36.390056 55.001764 C 37.126264 54.997567 37.794103 54.440877 37.794426 53.715403 L 37.797594 28.688633 C 37.796446 27.90565 38.41152 27.277667 39.189306 27.276181 C 39.982346 27.280909 40.599256 27.9057 40.600403 28.688683 L 40.599154 53.605971 C 40.60064 54.383757 41.270201 55.001542 42.047987 55.000055 L 55.988932 55.00076 C 56.766718 54.999274 57.385973 54.387222 57.384826 53.604239 L 57.38219 11.614072 C 57.38172 10.820694 56.712159 10.202909 55.934373 10.204396 L 32.191222 10.206623 C 31.413775 10.202912 30.79599 10.872472 30.79646 11.66585 L 30.795391 19.447891 C 30.796877 20.225677 30.18282 20.838068 29.389442 20.838537 C 28.611656 20.840024 27.994068 20.225627 27.992582 19.447841 L 27.997039 11.613827 C 27.996569 10.820449 27.326669 10.207861 26.544025 10.203812 L 2.800873 10.206038 C 2.007495 10.206508 1.393438 10.818899 1.393908 11.612276 L 1.396205 53.60764 C 1.392493 54.385088 2.077985 54.998692 2.855432 55.002403 Z M 2.855432 55.002403 " stroke="#231f20" stroke-width="11.269819" stroke-opacity="1" stroke-miterlimit="4"/><path stroke-linecap="butt" transform="matrix(0.749931, -0.0101796, 0.0101796, 0.749931, 158.893794, 146.247955)" fill="none" stroke-linejoin="miter" d="M 2.801626 54.998946 L 37.179752 55.002013 C 42.445882 55.000572 46.300846 51.130663 46.299335 45.869741 L 46.299496 39.718135 C 46.297515 36.410511 43.892475 34.002646 40.600475 34.00484 L 40.090035 34.00312 C 39.2983 34.00279 38.686765 33.390267 38.686953 32.608948 C 38.682075 31.817142 39.299877 31.20047 40.091612 31.2008 L 40.596844 31.202449 C 43.894052 31.200326 46.296709 28.795215 46.299936 25.487662 L 46.300097 19.336056 C 46.298586 14.075134 42.444512 10.204758 37.178382 10.206199 L 2.800256 10.203132 C 2.008521 10.202803 1.395927 10.819545 1.395597 11.61128 L 1.393336 53.604703 C 1.393148 54.386023 2.009891 54.998617 2.801626 54.998946 Z M 19.600684 26.172217 C 18.808949 26.171887 18.192277 25.554085 18.192606 24.76235 C 18.192724 23.986238 18.810526 23.369567 19.602261 23.369896 L 27.993669 23.369208 C 28.774988 23.369396 29.39173 23.98199 29.391542 24.76331 C 29.391213 25.555045 28.773411 26.171716 27.997299 26.171599 Z M 19.601636 41.835131 C 18.8099 41.834802 18.193158 41.222208 18.193346 40.440888 C 18.193464 39.664777 18.811266 39.048105 19.603001 39.048435 L 27.994408 39.047746 C 28.775728 39.047934 29.387262 39.660458 29.387074 40.441777 C 29.386886 41.223097 28.774363 41.834631 27.993043 41.834443 Z M 19.601636 41.835131 " stroke="#231f20" stroke-width="11.269819" stroke-opacity="1" stroke-miterlimit="4"/><path stroke-linecap="butt" transform="matrix(0.749602, 0.0244194, -0.0244194, 0.749602, 195.833092, 145.773785)" fill="none" stroke-linejoin="miter" d="M 2.858504 54.998129 L 44.849604 55.000726 C 45.626082 55.001487 46.24183 54.387363 46.242421 53.605679 L 46.244744 42.959333 C 46.245335 42.17765 45.57395 41.563767 44.792266 41.563176 L 19.601737 41.560441 C 18.809811 41.565395 18.195688 40.949647 18.196279 40.167963 C 18.19653 39.375868 18.807073 38.761914 19.604373 38.761996 L 42.606188 38.763077 C 43.387702 38.758462 44.00345 38.144338 44.004211 37.36786 L 44.001179 27.836863 C 44.00194 27.060385 43.330555 26.446503 42.554077 26.445742 L 19.604317 26.442966 C 18.807017 26.442884 18.192893 25.827136 18.193654 25.050658 C 18.193905 24.258563 18.809653 23.644439 19.601748 23.644691 L 44.849369 23.640355 C 45.631053 23.640946 46.241595 23.026992 46.242356 22.250514 L 46.245018 11.614579 C 46.24527 10.822484 45.631146 10.206737 44.849463 10.206146 L 2.801101 10.205413 C 2.009006 10.205162 1.393259 10.819285 1.393007 11.61138 L 1.395784 53.607516 C 1.395024 54.383994 2.07682 54.997538 2.858504 54.998129 Z M 2.858504 54.998129 " stroke="#231f20" stroke-width="11.269819" stroke-opacity="1" stroke-miterlimit="4"/><path stroke-linecap="butt" transform="matrix(0.747682, 0.0589259, -0.0589259, 0.747682, 232.711585, 147.002525)" fill="none" stroke-linejoin="miter" d="M 2.802874 54.998516 L 16.79921 54.99781 C 17.577763 54.999145 18.193673 54.328891 18.195008 53.550338 L 18.196369 40.442001 C 18.192511 39.663857 18.807321 39.045934 19.601451 39.046042 L 27.99734 39.047859 C 28.775893 39.049194 29.388623 39.664413 29.387289 40.442966 L 29.39002 53.603225 C 29.389095 54.38697 30.007017 55.00178 30.795955 55.002297 L 44.792291 55.001591 C 45.575627 54.997325 46.186754 54.332672 46.18768 53.548926 L 46.189685 39.71956 C 46.189859 36.407224 43.785385 34.00538 40.473048 34.005206 L 39.981705 34.002134 C 39.187575 34.002026 38.574844 33.386807 38.576179 32.608254 C 38.576286 31.814124 39.191506 31.201393 39.985636 31.201501 L 40.47657 31.199381 C 43.783714 31.199964 46.19075 28.795081 46.191333 25.487937 L 46.187381 19.339031 C 46.190279 14.072523 42.333013 10.207382 37.071697 10.204076 L 2.804278 10.203683 C 2.010148 10.203576 1.395338 10.821499 1.395231 11.615629 L 1.392156 53.605046 C 1.396013 54.38319 2.008744 54.998409 2.802874 54.998516 Z M 19.600457 26.172992 C 18.811519 26.172476 18.193597 25.557666 18.193704 24.763536 C 18.195039 23.984983 18.809849 23.36706 19.603979 23.367167 L 27.994675 23.369393 C 28.773228 23.370728 29.391151 23.985538 29.389816 24.764092 C 29.389709 25.558222 28.77449 26.170952 27.995936 26.169617 Z M 19.600457 26.172992 " stroke="#231f20" stroke-width="11.269819" stroke-opacity="1" stroke-miterlimit="4"/><path stroke-linecap="butt" transform="matrix(0.745371, 0.0831981, -0.0831981, 0.745371, 269.092691, 150.053882)" fill="none" stroke-linejoin="miter" d="M 2.854362 54.997839 L 16.799796 54.997734 C 17.58087 54.999642 18.193687 54.386209 18.195595 53.605135 L 18.193477 11.611815 C 18.194229 10.820388 17.522703 10.203574 16.747382 10.206265 L 2.801949 10.206369 C 2.010522 10.205617 1.392529 10.819627 1.391776 11.611054 L 1.393895 53.604374 C 1.391987 54.385448 2.079042 55.000529 2.854362 54.997839 Z M 2.854362 54.997839 " stroke="#231f20" stroke-width="11.269819" stroke-opacity="1" stroke-miterlimit="4"/><path stroke-linecap="butt" transform="matrix(0.742703, 0.104365, -0.104365, 0.742703, 284.423511, 151.670102)" fill="none" stroke-linejoin="miter" d="M 12.822604 54.997938 L 26.365944 54.998759 C 32.982564 54.99992 37.797503 50.189351 37.798663 43.572731 L 37.797363 21.63026 C 37.79409 15.019522 32.983521 10.204584 26.366901 10.203423 L 12.823561 10.202602 C 6.217981 10.205149 1.392727 15.017168 1.396725 21.633063 L 1.392143 43.571101 C 1.39614 50.186996 6.222182 54.99976 12.822604 54.997938 Z M 19.602039 42.12199 C 18.808012 42.123117 18.195853 41.509624 18.1969 40.73107 L 18.192115 24.490392 C 18.196145 23.695641 18.809638 23.083482 19.603665 23.082354 C 20.382218 23.083401 20.994377 23.696894 20.995505 24.490921 L 20.994408 40.727166 C 20.994086 41.510878 20.380593 42.123037 19.602039 42.12199 Z M 19.602039 42.12199 " stroke="#231f20" stroke-width="11.269819" stroke-opacity="1" stroke-miterlimit="4"/><g fill="#ffffff" fill-opacity="1"><g transform="translate(67.414806, 196.553279)"><g><path d="M 2.078125 -0.28125 L 12.484375 -1.703125 C 13.0625 -1.78125 13.46875 -2.34375 13.390625 -2.921875 L 12.0625 -12.671875 C 11.96875 -13.25 12.375 -13.765625 12.953125 -13.84375 L 19.203125 -14.703125 C 19.78125 -14.78125 20.28125 -14.390625 20.375 -13.8125 L 21.703125 -4.015625 C 21.78125 -3.453125 22.3125 -3.046875 22.875 -3.125 L 33.28125 -4.546875 C 33.875 -4.625 34.28125 -5.1875 34.203125 -5.765625 L 32.796875 -16.046875 C 32.453125 -18.5 30.421875 -20.046875 27.953125 -19.71875 L 27.578125 -19.65625 C 27.015625 -19.578125 26.484375 -19.96875 26.40625 -20.546875 C 26.328125 -21.140625 26.734375 -21.65625 27.296875 -21.734375 L 27.671875 -21.796875 C 30.140625 -22.125 31.6875 -24.15625 31.359375 -26.625 L 30.734375 -31.1875 C 30.1875 -35.109375 26.90625 -37.578125 23 -37.03125 L -2.46875 -33.5625 C -3.046875 -33.484375 -3.453125 -32.984375 -3.359375 -32.390625 L 0.890625 -1.171875 C 0.96875 -0.609375 1.5 -0.203125 2.078125 -0.28125 Z M 11.640625 -23.40625 C 11.0625 -23.328125 10.546875 -23.734375 10.46875 -24.328125 C 10.390625 -24.890625 10.78125 -25.421875 11.359375 -25.5 L 17.609375 -26.359375 C 18.1875 -26.4375 18.703125 -26.03125 18.78125 -25.46875 C 18.859375 -24.875 18.46875 -24.34375 17.890625 -24.265625 Z M 11.640625 -23.40625 "/></g></g></g><g fill="#ffffff" fill-opacity="1"><g transform="translate(102.28173, 191.962055)"><g><path d="M 2.125 -0.21875 L 12.53125 -1.296875 C 13.125 -1.359375 13.53125 -1.875 13.46875 -2.453125 L 10.234375 -33.78125 C 10.171875 -34.375 9.625 -34.765625 9.046875 -34.71875 L -1.375 -33.640625 C -1.953125 -33.578125 -2.359375 -33.078125 -2.296875 -32.484375 L 0.9375 -1.15625 C 1 -0.578125 1.53125 -0.15625 2.125 -0.21875 Z M 2.125 -0.21875 "/></g></g></g><g fill="#ffffff" fill-opacity="1"><g transform="translate(116.273002, 190.223463)"><g><path d="M 2.140625 -0.140625 L 12.5625 -0.8125 C 13.15625 -0.859375 13.59375 -1.359375 13.5625 -1.9375 L 12.34375 -20.578125 C 12.296875 -21.171875 12.71875 -21.671875 13.3125 -21.703125 C 13.890625 -21.75 14.390625 -21.3125 14.4375 -20.71875 L 15.65625 -2 C 15.6875 -1.453125 16.21875 -1.0625 16.765625 -1.09375 L 27.234375 -1.78125 C 27.78125 -1.8125 28.25 -2.265625 28.21875 -2.8125 L 27 -21.53125 C 26.953125 -22.125 27.390625 -22.625 27.984375 -22.65625 C 28.5625 -22.703125 29.0625 -22.265625 29.109375 -21.671875 L 30.328125 -3.03125 C 30.359375 -2.453125 30.890625 -2.015625 31.484375 -2.046875 L 41.90625 -2.734375 C 42.5 -2.765625 42.921875 -3.265625 42.890625 -3.84375 L 40.84375 -35.28125 C 40.796875 -35.875 40.265625 -36.28125 39.671875 -36.25 L 21.921875 -35.09375 C 21.328125 -35.046875 20.890625 -34.53125 20.9375 -33.953125 L 21.3125 -28.109375 C 21.34375 -27.515625 20.921875 -27.046875 20.328125 -27.015625 C 19.75 -26.96875 19.25 -27.375 19.21875 -27.96875 L 18.84375 -33.84375 C 18.796875 -34.4375 18.265625 -34.84375 17.671875 -34.8125 L -0.09375 -33.65625 C -0.671875 -33.609375 -1.109375 -33.140625 -1.0625 -32.546875 L 0.984375 -1.109375 C 1.015625 -0.53125 1.546875 -0.09375 2.140625 -0.140625 Z M 2.140625 -0.140625 "/></g></g></g><g fill="#ffffff" fill-opacity="1"><g transform="translate(159.453673, 187.494154)"><g><path d="M 2.09375 -0.03125 L 27.890625 -0.375 C 31.84375 -0.4375 34.6875 -3.359375 34.640625 -7.3125 L 34.578125 -11.9375 C 34.546875 -14.40625 32.703125 -16.203125 30.234375 -16.15625 L 29.859375 -16.15625 C 29.265625 -16.15625 28.796875 -16.609375 28.78125 -17.1875 C 28.78125 -17.78125 29.25 -18.25 29.84375 -18.25 L 30.21875 -18.25 C 32.6875 -18.296875 34.46875 -20.125 34.4375 -22.609375 L 34.375 -27.21875 C 34.3125 -31.171875 31.390625 -34.03125 27.4375 -33.96875 L 1.640625 -33.625 C 1.0625 -33.609375 0.59375 -33.15625 0.609375 -32.5625 L 1.03125 -1.0625 C 1.046875 -0.484375 1.515625 -0.015625 2.09375 -0.03125 Z M 14.40625 -21.828125 C 13.8125 -21.8125 13.359375 -22.28125 13.34375 -22.875 C 13.34375 -23.453125 13.78125 -23.921875 14.375 -23.9375 L 20.671875 -24.015625 C 21.265625 -24.03125 21.734375 -23.5625 21.734375 -22.984375 C 21.75 -22.390625 21.296875 -21.921875 20.703125 -21.90625 Z M 14.5625 -10.078125 C 13.96875 -10.0625 13.515625 -10.515625 13.515625 -11.109375 C 13.5 -11.703125 13.953125 -12.15625 14.546875 -12.171875 L 20.84375 -12.25 C 21.4375 -12.265625 21.890625 -11.8125 21.90625 -11.21875 C 21.90625 -10.625 21.453125 -10.171875 20.859375 -10.15625 Z M 14.5625 -10.078125 "/></g></g></g><g fill="#ffffff" fill-opacity="1"><g transform="translate(194.490026, 187.001912)"><g><path d="M 2.140625 0.0625 L 33.625 1.09375 C 34.21875 1.109375 34.6875 0.65625 34.703125 0.078125 L 34.96875 -7.90625 C 34.984375 -8.5 34.5 -8.96875 33.90625 -8.984375 L 15.015625 -9.59375 C 14.4375 -9.625 14 -10.109375 14.015625 -10.6875 C 14.03125 -11.28125 14.5 -11.734375 15.078125 -11.703125 L 32.34375 -11.140625 C 32.921875 -11.125 33.40625 -11.5625 33.4375 -12.15625 L 33.65625 -19.28125 C 33.6875 -19.859375 33.203125 -20.34375 32.609375 -20.375 L 15.390625 -20.921875 C 14.8125 -20.953125 14.375 -21.421875 14.390625 -22.015625 C 14.40625 -22.609375 14.875 -23.046875 15.453125 -23.015625 L 34.390625 -22.40625 C 34.984375 -22.390625 35.453125 -22.84375 35.46875 -23.421875 L 35.734375 -31.40625 C 35.75 -32 35.3125 -32.46875 34.71875 -32.484375 L 3.1875 -33.515625 C 2.609375 -33.53125 2.125 -33.09375 2.109375 -32.5 L 1.078125 -1.015625 C 1.0625 -0.4375 1.546875 0.046875 2.140625 0.0625 Z M 2.140625 0.0625 "/></g></g></g><g fill="#ffffff" fill-opacity="1"><g transform="translate(229.470662, 188.12501)"><g><path d="M 2.09375 0.171875 L 12.5625 0.984375 C 13.140625 1.03125 13.65625 0.578125 13.6875 -0.015625 L 14.46875 -9.8125 C 14.515625 -10.40625 15 -10.828125 15.59375 -10.78125 L 21.875 -10.28125 C 22.46875 -10.234375 22.890625 -9.75 22.84375 -9.15625 L 22.0625 0.6875 C 22.015625 1.265625 22.453125 1.765625 23.015625 1.8125 L 33.484375 2.640625 C 34.078125 2.6875 34.59375 2.21875 34.625 1.625 L 35.453125 -8.71875 C 35.640625 -11.171875 33.96875 -13.125 31.5 -13.3125 L 31.125 -13.34375 C 30.546875 -13.390625 30.125 -13.890625 30.15625 -14.46875 C 30.203125 -15.0625 30.71875 -15.46875 31.296875 -15.421875 L 31.671875 -15.390625 C 34.140625 -15.203125 36.09375 -16.875 36.28125 -19.359375 L 36.65625 -23.953125 C 36.953125 -27.890625 34.296875 -30.984375 30.34375 -31.296875 L 4.734375 -33.3125 C 4.15625 -33.359375 3.65625 -32.953125 3.609375 -32.375 L 1.125 -0.96875 C 1.078125 -0.390625 1.515625 0.125 2.09375 0.171875 Z M 16.359375 -20.40625 C 15.765625 -20.453125 15.34375 -20.953125 15.390625 -21.546875 C 15.4375 -22.109375 15.921875 -22.546875 16.515625 -22.5 L 22.796875 -22 C 23.390625 -21.953125 23.8125 -21.453125 23.765625 -20.890625 C 23.71875 -20.296875 23.234375 -19.859375 22.640625 -19.90625 Z M 16.359375 -20.40625 "/></g></g></g><g fill="#ffffff" fill-opacity="1"><g transform="translate(264.516793, 191.04929)"><g><path d="M 2.125 0.234375 L 12.515625 1.390625 C 13.109375 1.46875 13.625 1.046875 13.6875 0.46875 L 17.1875 -30.828125 C 17.25 -31.421875 16.78125 -31.9375 16.203125 -32 L 5.796875 -33.15625 C 5.21875 -33.21875 4.71875 -32.828125 4.65625 -32.234375 L 1.15625 -0.9375 C 1.09375 -0.359375 1.53125 0.171875 2.125 0.234375 Z M 2.125 0.234375 "/></g></g></g><g fill="#ffffff" fill-opacity="1"><g transform="translate(278.683429, 192.518768)"><g><path d="M 9.53125 1.34375 L 19.59375 2.75 C 24.5 3.4375 28.5625 0.359375 29.25 -4.546875 L 31.546875 -20.84375 C 32.234375 -25.75 29.171875 -29.828125 24.265625 -30.515625 L 14.203125 -31.921875 C 9.28125 -32.625 5.203125 -29.546875 4.515625 -24.640625 L 2.21875 -8.34375 C 1.53125 -3.4375 4.609375 0.640625 9.53125 1.34375 Z M 15.90625 -7.515625 C 15.3125 -7.59375 14.921875 -8.125 15 -8.6875 L 16.703125 -20.765625 C 16.78125 -21.34375 17.296875 -21.734375 17.890625 -21.65625 C 18.453125 -21.578125 18.859375 -21.0625 18.78125 -20.484375 L 17.078125 -8.40625 C 17 -7.84375 16.46875 -7.4375 15.90625 -7.515625 Z M 15.90625 -7.515625 "/></g></g></g><path stroke-linecap="butt" transform="matrix(1.070721, -0.129058, 0.129058, 1.070721, 96.575806, 194.31261)" fill="none" stroke-linejoin="miter" d="M 7.406281 13.241913 C 5.892269 13.241835 4.667767 13.079647 3.743996 12.753055 C 2.816196 12.429625 2.107976 11.979436 1.625662 11.410547 C 1.139751 10.841224 0.81428 10.181792 0.648815 9.435847 L 5.639227 9.43905 C 6.009503 9.968898 6.597851 10.233171 7.407432 10.235898 C 8.213851 10.234597 8.800319 9.969648 9.170867 9.437889 C 9.202541 9.386983 9.219397 9.337939 9.216973 9.297516 C 9.219493 9.155539 9.031682 9.048991 8.660732 8.978742 C 8.289349 8.912088 7.730669 8.855692 6.990583 8.821211 C 6.058176 8.77814 5.081493 8.678658 4.053342 8.521896 C 1.768196 8.169845 0.623929 7.251198 0.624135 5.766387 C 0.624922 5.638793 0.633333 5.508471 0.646642 5.367793 C 0.816776 4.622169 1.140495 3.964373 1.624991 3.395274 C 2.10992 2.822578 2.816887 2.375148 3.742294 2.05255 C 4.668135 1.726356 5.891657 1.563732 7.405669 1.56381 C 8.923277 1.564321 10.144183 1.726075 11.071983 2.049505 C 11.995754 2.376097 12.704407 2.82269 13.186288 3.395176 C 13.672198 3.964499 13.997669 4.623931 14.163568 5.366279 L 9.172723 5.366672 C 8.802447 4.836825 8.214533 4.568956 7.404518 4.569824 C 6.598099 4.571126 6.01163 4.836075 5.641083 5.367834 C 5.614306 5.408385 5.602346 5.447074 5.601607 5.483467 C 5.600821 5.611061 5.779577 5.701924 6.13701 5.763248 C 6.494876 5.820976 7.021193 5.873471 7.71323 5.913106 C 8.40843 5.95677 9.151806 6.024483 9.936168 6.115377 C 10.723691 6.210301 11.459395 6.371943 12.146439 6.604334 C 12.829888 6.83629 13.365115 7.17807 13.751685 7.633268 C 14.052433 7.983268 14.20353 8.424676 14.204542 8.96109 C 14.204751 9.110693 14.189276 9.269351 14.165308 9.437929 C 13.99877 10.183987 13.671454 10.841349 13.186959 11.410449 C 12.702463 11.979548 11.999093 12.427412 11.069656 12.753172 C 10.143815 13.079366 8.920293 13.241991 7.406281 13.241913 Z M 7.406281 13.241913 " stroke="#231f20" stroke-width="1.9" stroke-opacity="1" stroke-miterlimit="4"/><path stroke-linecap="butt" transform="matrix(1.073404, -0.104418, 0.104418, 1.073404, 112.689943, 192.375602)" fill="none" stroke-linejoin="miter" d="M 9.563086 13.000689 L 4.85762 13.001483 L 4.859734 4.562558 L 0.467456 4.561066 L 0.467908 1.788097 L 13.954326 1.789937 L 13.953874 4.562906 L 9.561595 4.561414 Z M 9.563086 13.000689 " stroke="#231f20" stroke-width="1.9" stroke-opacity="1" stroke-miterlimit="4"/><path stroke-linecap="butt" transform="matrix(1.075665, -0.077735, 0.077735, 1.075665, 128.425748, 190.829827)" fill="none" stroke-linejoin="miter" d="M 16.553325 13.000595 L 12.10852 12.998952 C 11.90721 12.719307 11.76248 12.360226 11.677944 11.921972 C 11.608035 11.582824 11.497604 11.251642 11.350525 10.925075 C 11.207058 10.598769 10.954127 10.329919 10.599478 10.111821 C 10.240955 9.897076 9.711772 9.782572 9.008576 9.764438 L 5.954449 9.765245 L 5.953041 13.000786 L 1.250436 12.998671 L 1.250753 1.788336 L 8.898585 1.789037 C 10.725125 1.790302 12.200592 1.925981 13.324727 2.199687 C 14.445248 2.473132 15.263969 2.902708 15.780888 3.488417 C 16.297808 4.074126 16.554972 4.837162 16.555733 5.7814 C 16.55327 6.569252 16.374917 7.228185 16.020155 7.765426 C 15.661779 8.302406 15.097309 8.726442 14.326744 9.037534 C 15.074341 9.345764 15.556087 9.714674 15.775595 10.144525 C 15.998715 10.574637 16.135352 11.045708 16.188856 11.561613 C 16.239312 12.019193 16.360714 12.500058 16.553325 13.000595 Z M 5.954431 7.001693 L 8.64238 6.99258 C 9.390493 6.992172 9.981218 6.958601 10.414554 6.891867 C 10.848152 6.82152 11.166929 6.731982 11.37167 6.612413 C 11.576149 6.496457 11.709159 6.364442 11.766566 6.223332 C 11.824234 6.078609 11.853001 5.931797 11.852867 5.782897 C 11.852994 5.630384 11.823698 5.483008 11.765241 5.337156 C 11.706783 5.191304 11.57838 5.058555 11.372547 4.941999 C 11.166713 4.825443 10.846539 4.733307 10.415637 4.665852 C 9.981383 4.594524 9.391745 4.562807 8.640019 4.562954 L 5.952854 4.561229 Z M 5.954431 7.001693 " stroke="#231f20" stroke-width="1.9" stroke-opacity="1" stroke-miterlimit="4"/><path stroke-linecap="butt" transform="matrix(1.077302, -0.0501973, 0.0501973, 1.077302, 147.17122, 189.49074)" fill="none" stroke-linejoin="miter" d="M 14.750854 12.998792 L 1.251326 13.000693 L 1.251589 1.789244 L 14.134692 1.787628 L 14.132357 4.561377 L 5.952216 4.560946 L 5.953668 6.319603 L 12.868393 6.319087 L 12.865773 8.476409 L 5.954666 8.477094 L 5.952837 10.228346 L 14.749571 10.224874 Z M 14.750854 12.998792 " stroke="#231f20" stroke-width="1.9" stroke-opacity="1" stroke-miterlimit="4"/><path stroke-linecap="butt" transform="matrix(1.0782, -0.0241557, 0.0241557, 1.0782, 163.985384, 188.7103)" fill="none" stroke-linejoin="miter" d="M 14.750239 13.000461 L 1.251215 12.998736 L 1.248742 1.789315 L 14.131932 1.788111 L 14.131349 4.563267 L 5.954426 4.561221 L 5.954831 6.321977 L 12.867415 6.321058 L 12.866219 8.476679 L 5.953635 8.477598 L 5.954283 10.227491 L 14.750823 10.225304 Z M 14.750239 13.000461 " stroke="#231f20" stroke-width="1.9" stroke-opacity="1" stroke-miterlimit="4"/><path stroke-linecap="butt" transform="matrix(1.07847, 0.00109236, -0.00109236, 1.07847, 180.80573, 188.342332)" fill="none" stroke-linejoin="miter" d="M 9.56349 12.998335 L 4.858475 12.999479 L 4.860797 4.56377 L 0.467273 4.560976 L 0.468088 1.790123 L 13.952901 1.78733 L 13.952089 4.561806 L 9.56219 4.56263 Z M 9.56349 12.998335 " stroke="#231f20" stroke-width="1.9" stroke-opacity="1" stroke-miterlimit="4"/><path stroke-linecap="butt" transform="matrix(1.077935, 0.0339767, -0.0339767, 1.077935, 196.677721, 188.281291)" fill="none" stroke-linejoin="miter" d="M 18.882275 13.001388 L 14.961307 13.001768 L 12.195045 5.718097 L 9.431244 12.998508 L 5.506655 12.999002 L 0.116458 1.797333 L 4.881739 1.795708 L 7.693548 8.914871 L 10.712508 1.796736 L 13.680444 1.797406 L 16.6951 8.913799 L 19.507593 1.798548 L 24.272874 1.796923 Z M 18.882275 13.001388 " stroke="#231f20" stroke-width="1.9" stroke-opacity="1" stroke-miterlimit="4"/><path stroke-linecap="butt" transform="matrix(1.076348, 0.0676355, -0.0676355, 1.076348, 223.290311, 189.20117)" fill="none" stroke-linejoin="miter" d="M 14.751751 12.999978 L 1.251178 12.9991 L 1.250792 1.788613 L 14.134335 1.788343 L 14.134365 4.561028 L 5.954356 4.56333 L 5.952236 6.319982 L 12.865875 6.321044 L 12.867053 8.476698 L 5.953414 8.475636 L 5.954455 10.224832 L 14.751722 10.227292 Z M 14.751751 12.999978 " stroke="#231f20" stroke-width="1.9" stroke-opacity="1" stroke-miterlimit="4"/><path stroke-linecap="butt" transform="matrix(1.074132, 0.0966334, -0.0966334, 1.074132, 240.120471, 190.236139)" fill="none" stroke-linejoin="miter" d="M 18.829722 13.000085 L 14.062047 12.999879 L 13.009496 11.163507 L 5.936194 11.163435 L 4.883151 13.00013 L 0.115476 12.999924 L 7.290113 1.797252 L 11.657722 1.797083 Z M 11.421668 8.389756 L 9.476004 4.9936 L 7.523317 8.391349 Z M 11.421668 8.389756 " stroke="#231f20" stroke-width="1.9" stroke-opacity="1" stroke-miterlimit="4"/><path stroke-linecap="butt" transform="matrix(1.070957, 0.12708, -0.12708, 1.070957, 260.762243, 192.110817)" fill="none" stroke-linejoin="miter" d="M 16.554908 12.999687 L 12.10853 12.998415 C 11.907654 12.719514 11.762984 12.360995 11.678117 11.92243 C 11.6052 11.584576 11.496315 11.250989 11.351889 10.925268 C 11.207464 10.599546 10.953062 10.330643 10.599048 10.113683 C 10.241437 9.897149 9.709779 9.781511 9.007671 9.766342 L 5.954475 9.763891 L 5.951782 12.999488 L 1.250214 12.999318 L 1.251501 1.790588 L 8.899825 1.787602 C 10.727426 1.789585 12.202422 1.924594 13.325665 2.199824 C 14.444884 2.471883 15.265693 2.903364 15.780045 3.487928 C 16.29842 4.075661 16.55289 4.83696 16.555527 5.781333 C 16.554198 6.569338 16.377111 7.228652 16.017927 7.767325 C 15.661913 8.301974 15.099478 8.726161 14.327024 9.040314 C 15.074493 9.345543 15.556043 9.715152 15.778442 10.144692 C 15.997244 10.574659 16.137161 11.046813 16.187402 11.562435 C 16.238009 12.019655 16.360795 12.501137 16.554908 12.999687 Z M 5.954675 6.999109 L 8.64179 6.990288 C 9.389803 6.992715 9.980348 6.959115 10.413427 6.889489 C 10.846932 6.823459 11.164241 6.731096 11.372549 6.611544 C 11.577687 6.496017 11.708328 6.367444 11.764045 6.22223 C 11.823787 6.080186 11.849876 5.931193 11.850362 5.78159 C 11.850847 5.631988 11.822131 5.482203 11.764641 5.335832 C 11.707151 5.189461 11.578579 5.05882 11.371303 4.941165 C 11.164028 4.823511 10.84696 4.733474 10.415647 4.664288 C 9.980738 4.595529 9.389704 4.563532 8.641691 4.561106 L 5.953722 4.562733 Z M 5.954675 6.999109 " stroke="#231f20" stroke-width="1.9" stroke-opacity="1" stroke-miterlimit="4"/><g fill="#ffffff" fill-opacity="1"><g transform="translate(98.253565, 208.231978)"><g><path d="M 7.953125 -0.6875 C 6.328125 -0.488281 5 -0.503906 3.96875 -0.734375 C 2.9375 -0.972656 2.125 -1.363281 1.53125 -1.90625 C 0.945312 -2.457031 0.519531 -3.117188 0.25 -3.890625 L 5.578125 -4.546875 C 6.035156 -4.023438 6.695312 -3.816406 7.5625 -3.921875 C 8.4375 -4.023438 9.035156 -4.382812 9.359375 -5 C 9.378906 -5.050781 9.382812 -5.101562 9.375 -5.15625 C 9.363281 -5.300781 9.15625 -5.390625 8.75 -5.421875 C 8.34375 -5.453125 7.742188 -5.4375 6.953125 -5.375 C 5.941406 -5.300781 4.878906 -5.285156 3.765625 -5.328125 C 1.273438 -5.410156 -0.0664062 -6.238281 -0.265625 -7.8125 C -0.273438 -7.945312 -0.28125 -8.09375 -0.28125 -8.25 C -0.195312 -9.070312 0.0625 -9.816406 0.5 -10.484375 C 0.945312 -11.160156 1.644531 -11.726562 2.59375 -12.1875 C 3.539062 -12.65625 4.828125 -12.988281 6.453125 -13.1875 C 8.078125 -13.382812 9.40625 -13.367188 10.4375 -13.140625 C 11.476562 -12.921875 12.289062 -12.535156 12.875 -11.984375 C 13.46875 -11.441406 13.898438 -10.78125 14.171875 -10 L 8.828125 -9.359375 C 8.367188 -9.878906 7.703125 -10.085938 6.828125 -9.984375 C 5.960938 -9.878906 5.367188 -9.519531 5.046875 -8.90625 C 5.035156 -8.84375 5.03125 -8.796875 5.03125 -8.765625 C 5.039062 -8.628906 5.238281 -8.550781 5.625 -8.53125 C 6.019531 -8.507812 6.59375 -8.523438 7.34375 -8.578125 C 8.09375 -8.628906 8.890625 -8.65625 9.734375 -8.65625 C 10.585938 -8.65625 11.394531 -8.570312 12.15625 -8.40625 C 12.925781 -8.25 13.550781 -7.953125 14.03125 -7.515625 C 14.394531 -7.179688 14.613281 -6.726562 14.6875 -6.15625 C 14.707031 -5.988281 14.710938 -5.816406 14.703125 -5.640625 C 14.617188 -4.828125 14.351562 -4.082031 13.90625 -3.40625 C 13.46875 -2.738281 12.769531 -2.164062 11.8125 -1.6875 C 10.863281 -1.21875 9.578125 -0.882812 7.953125 -0.6875 Z M 7.953125 -0.6875 "/></g></g></g><g fill="#ffffff" fill-opacity="1"><g transform="translate(114.047376, 206.32985)"><g><path d="M 10.265625 -1 L 5.203125 -0.5 L 4.328125 -9.546875 L -0.375 -9.09375 L -0.671875 -12.078125 L 13.796875 -13.484375 L 14.09375 -10.5 L 9.390625 -10.046875 Z M 10.265625 -1 "/></g></g></g><g fill="#ffffff" fill-opacity="1"><g transform="translate(129.436303, 204.813476)"><g><path d="M 17.796875 -1.28125 L 13.03125 -0.9375 C 12.789062 -1.226562 12.609375 -1.601562 12.484375 -2.0625 C 12.367188 -2.425781 12.21875 -2.773438 12.03125 -3.109375 C 11.851562 -3.453125 11.5625 -3.722656 11.15625 -3.921875 C 10.757812 -4.128906 10.1875 -4.210938 9.4375 -4.171875 L 6.15625 -3.9375 L 6.40625 -0.46875 L 1.34375 -0.09375 L 0.46875 -12.15625 L 8.6875 -12.75 C 10.65625 -12.894531 12.253906 -12.863281 13.484375 -12.65625 C 14.710938 -12.445312 15.625 -12.046875 16.21875 -11.453125 C 16.820312 -10.859375 17.160156 -10.054688 17.234375 -9.046875 C 17.296875 -8.203125 17.15625 -7.476562 16.8125 -6.875 C 16.46875 -6.269531 15.894531 -5.765625 15.09375 -5.359375 C 15.925781 -5.097656 16.476562 -4.742188 16.75 -4.296875 C 17.019531 -3.859375 17.203125 -3.359375 17.296875 -2.796875 C 17.378906 -2.316406 17.546875 -1.8125 17.796875 -1.28125 Z M 5.9375 -6.921875 L 8.8125 -7.140625 C 9.625 -7.203125 10.257812 -7.285156 10.71875 -7.390625 C 11.175781 -7.492188 11.507812 -7.613281 11.71875 -7.75 C 11.9375 -7.894531 12.070312 -8.046875 12.125 -8.203125 C 12.175781 -8.359375 12.195312 -8.519531 12.1875 -8.6875 C 12.175781 -8.851562 12.132812 -9.007812 12.0625 -9.15625 C 11.988281 -9.3125 11.832031 -9.441406 11.59375 -9.546875 C 11.363281 -9.660156 11.015625 -9.734375 10.546875 -9.765625 C 10.078125 -9.804688 9.4375 -9.796875 8.625 -9.734375 L 5.75 -9.53125 Z M 5.9375 -6.921875 "/></g></g></g><g fill="#ffffff" fill-opacity="1"><g transform="translate(147.823785, 203.495661)"><g><path d="M 15.890625 -0.734375 L 1.34375 -0.0625 L 0.78125 -12.140625 L 14.65625 -12.78125 L 14.796875 -9.78125 L 6 -9.375 L 6.09375 -7.484375 L 13.53125 -7.828125 L 13.625 -5.515625 L 6.1875 -5.171875 L 6.28125 -3.28125 L 15.75 -3.71875 Z M 15.890625 -0.734375 "/></g></g></g><g fill="#ffffff" fill-opacity="1"><g transform="translate(164.299408, 202.726899)"><g><path d="M 15.90625 -0.359375 L 1.34375 -0.03125 L 1.078125 -12.125 L 14.96875 -12.4375 L 15.03125 -9.4375 L 6.21875 -9.234375 L 6.265625 -7.34375 L 13.71875 -7.515625 L 13.765625 -5.1875 L 6.3125 -5.015625 L 6.359375 -3.125 L 15.84375 -3.34375 Z M 15.90625 -0.359375 "/></g></g></g><g fill="#ffffff" fill-opacity="1"><g transform="translate(180.79153, 202.362442)"><g><path d="M 10.3125 0.015625 L 5.234375 0 L 5.25 -9.09375 L 0.515625 -9.09375 L 0.515625 -12.09375 L 15.0625 -12.078125 L 15.0625 -9.078125 L 10.328125 -9.078125 Z M 10.3125 0.015625 "/></g></g></g><g fill="#ffffff" fill-opacity="1"><g transform="translate(196.236024, 202.294447)"><g><path d="M 20.34375 0.640625 L 16.109375 0.515625 L 13.390625 -7.4375 L 10.171875 0.328125 L 5.9375 0.1875 L 0.5 -12.078125 L 5.640625 -11.90625 L 8.4375 -4.140625 L 11.921875 -11.71875 L 15.125 -11.609375 L 18.125 -3.84375 L 21.390625 -11.421875 L 26.53125 -11.25 Z M 20.34375 0.640625 "/></g></g></g><g fill="#ffffff" fill-opacity="1"><g transform="translate(222.41105, 203.193688)"><g><path d="M 15.875 1 L 1.34375 0.078125 L 2.109375 -11.984375 L 15.96875 -11.109375 L 15.765625 -8.125 L 6.96875 -8.671875 L 6.859375 -6.78125 L 14.296875 -6.3125 L 14.15625 -3.984375 L 6.71875 -4.453125 L 6.59375 -2.578125 L 16.0625 -1.984375 Z M 15.875 1 "/></g></g></g><g fill="#ffffff" fill-opacity="1"><g transform="translate(238.864237, 204.19986)"><g><path d="M 20.21875 1.8125 L 15.09375 1.359375 L 14.140625 -0.71875 L 6.546875 -1.390625 L 5.25 0.46875 L 0.125 0.015625 L 8.90625 -11.328125 L 13.59375 -10.90625 Z M 12.703125 -3.84375 L 10.953125 -7.6875 L 8.515625 -4.21875 Z M 12.703125 -3.84375 "/></g></g></g><g fill="#ffffff" fill-opacity="1"><g transform="translate(259.110206, 206.03326)"><g><path d="M 17.71875 2.109375 L 12.96875 1.546875 C 12.78125 1.210938 12.671875 0.8125 12.640625 0.34375 C 12.597656 -0.03125 12.519531 -0.40625 12.40625 -0.78125 C 12.300781 -1.15625 12.066406 -1.476562 11.703125 -1.75 C 11.347656 -2.019531 10.800781 -2.207031 10.0625 -2.3125 L 6.78125 -2.703125 L 6.375 0.75 L 1.328125 0.15625 L 2.75 -11.859375 L 10.953125 -10.890625 C 12.898438 -10.648438 14.457031 -10.3125 15.625 -9.875 C 16.800781 -9.4375 17.625 -8.867188 18.09375 -8.171875 C 18.570312 -7.484375 18.753906 -6.632812 18.640625 -5.625 C 18.535156 -4.78125 18.257812 -4.09375 17.8125 -3.5625 C 17.363281 -3.039062 16.707031 -2.65625 15.84375 -2.40625 C 16.613281 -1.988281 17.085938 -1.535156 17.265625 -1.046875 C 17.441406 -0.566406 17.523438 -0.0390625 17.515625 0.53125 C 17.503906 1.007812 17.570312 1.535156 17.71875 2.109375 Z M 7.140625 -5.671875 L 10.015625 -5.34375 C 10.816406 -5.25 11.453125 -5.207031 11.921875 -5.21875 C 12.398438 -5.238281 12.753906 -5.296875 12.984375 -5.390625 C 13.210938 -5.492188 13.367188 -5.617188 13.453125 -5.765625 C 13.535156 -5.910156 13.585938 -6.066406 13.609375 -6.234375 C 13.628906 -6.390625 13.613281 -6.546875 13.5625 -6.703125 C 13.519531 -6.867188 13.394531 -7.023438 13.1875 -7.171875 C 12.988281 -7.328125 12.660156 -7.46875 12.203125 -7.59375 C 11.753906 -7.726562 11.128906 -7.84375 10.328125 -7.9375 L 7.453125 -8.28125 Z M 7.140625 -5.671875 "/></g></g></g></svg>